<?xml version="1.0" encoding="utf-8"?>
<!-- Generator: Adobe Illustrator 25.0.0, SVG Export Plug-In . SVG Version: 6.00 Build 0)  -->
<svg version="1.1" id="Capa_1" xmlns="http://www.w3.org/2000/svg" xmlns:xlink="http://www.w3.org/1999/xlink" x="0px" y="0px"
	 viewBox="0 0 751.1 740.7" style="enable-background:new 0 0 751.1 740.7;" xml:space="preserve">
<style type="text/css">
	.st0{fill:none;}
	.st1{fill:#1C1C1B;}
	.st2{fill:#FF8433;}
	.st3{fill:#FFF7F2;}
	.st4{fill:none;stroke:#1C1C1B;stroke-linecap:round;stroke-linejoin:round;stroke-miterlimit:10;}
	.st5{fill:#3998E0;stroke:#1C1C1B;stroke-linecap:round;stroke-linejoin:round;stroke-miterlimit:10;}
	.st6{fill:#FFF7F2;stroke:#1C1C1B;stroke-linecap:round;stroke-linejoin:round;stroke-miterlimit:10;}
	.st7{fill:#FFCAD8;stroke:#1C1C1B;stroke-linecap:round;stroke-linejoin:round;stroke-miterlimit:10;}
	.st8{fill:#FFC031;stroke:#1C1C1B;stroke-linecap:round;stroke-linejoin:round;stroke-miterlimit:10;}
	.st9{fill:#FF8433;stroke:#1C1C1B;stroke-linecap:round;stroke-linejoin:round;stroke-miterlimit:10;}
	.st10{fill:#FFC031;}
	.st11{fill:#1C1C1B;stroke:#1C1C1B;stroke-linecap:round;stroke-linejoin:round;stroke-miterlimit:10;}
	.st12{fill:#FF6565;}
	.st13{opacity:0.5;fill:url(#SVGID_1_);}
	.st14{opacity:0.5;fill:url(#SVGID_2_);}
	.st15{fill:#3998E0;}
	.st16{fill:#FF6496;}
	.st17{opacity:0.5;fill:url(#SVGID_3_);}
	.st18{opacity:0.5;fill:url(#SVGID_4_);}
	.st19{opacity:0.2;fill:url(#SVGID_5_);}
</style>
<pattern  y="740.7" width="28.8" height="28.8" patternUnits="userSpaceOnUse" id="Unnamed_Pattern_7" viewBox="1.4 -30.2 28.8 28.8" style="overflow:visible;">
	<g>
		<rect x="1.4" y="-30.2" class="st0" width="28.8" height="28.8"/>
		<g>
			<path class="st1" d="M30.2,0c0.8,0,1.4-0.6,1.4-1.4c0-0.8-0.6-1.4-1.4-1.4c-0.8,0-1.4,0.6-1.4,1.4C28.8-0.6,29.4,0,30.2,0z"/>
			<path class="st1" d="M15.8,0c0.8,0,1.4-0.6,1.4-1.4c0-0.8-0.6-1.4-1.4-1.4c-0.8,0-1.4,0.6-1.4,1.4C14.4-0.6,15,0,15.8,0z"/>
			<path class="st1" d="M30.2-14.4c0.8,0,1.4-0.6,1.4-1.4c0-0.8-0.6-1.4-1.4-1.4c-0.8,0-1.4,0.6-1.4,1.4
				C28.8-15,29.4-14.4,30.2-14.4z"/>
			<path class="st1" d="M15.8-14.4c0.8,0,1.4-0.6,1.4-1.4c0-0.8-0.6-1.4-1.4-1.4c-0.8,0-1.4,0.6-1.4,1.4C14.4-15,15-14.4,15.8-14.4z
				"/>
			<path class="st1" d="M8.6-7.2c0.8,0,1.4-0.6,1.4-1.4c0-0.8-0.6-1.4-1.4-1.4c-0.8,0-1.4,0.6-1.4,1.4C7.2-7.8,7.8-7.2,8.6-7.2z"/>
			<path class="st1" d="M23-7.2c0.8,0,1.4-0.6,1.4-1.4c0-0.8-0.6-1.4-1.4-1.4c-0.8,0-1.4,0.6-1.4,1.4C21.6-7.8,22.2-7.2,23-7.2z"/>
			<path class="st1" d="M8.6-21.6c0.8,0,1.4-0.6,1.4-1.4c0-0.8-0.6-1.4-1.4-1.4c-0.8,0-1.4,0.6-1.4,1.4C7.2-22.2,7.8-21.6,8.6-21.6z
				"/>
			<path class="st1" d="M23-21.6c0.8,0,1.4-0.6,1.4-1.4c0-0.8-0.6-1.4-1.4-1.4c-0.8,0-1.4,0.6-1.4,1.4C21.6-22.2,22.2-21.6,23-21.6z
				"/>
		</g>
		<g>
			<path class="st1" d="M1.4,0c0.8,0,1.4-0.6,1.4-1.4c0-0.8-0.6-1.4-1.4-1.4C0.6-2.9,0-2.2,0-1.4C0-0.6,0.6,0,1.4,0z"/>
			<path class="st1" d="M1.4-14.4c0.8,0,1.4-0.6,1.4-1.4c0-0.8-0.6-1.4-1.4-1.4c-0.8,0-1.4,0.6-1.4,1.4C0-15,0.6-14.4,1.4-14.4z"/>
		</g>
		<g>
			<path class="st1" d="M30.2-28.8c0.8,0,1.4-0.6,1.4-1.4c0-0.8-0.6-1.4-1.4-1.4c-0.8,0-1.4,0.6-1.4,1.4
				C28.8-29.4,29.4-28.8,30.2-28.8z"/>
			<path class="st1" d="M15.8-28.8c0.8,0,1.4-0.6,1.4-1.4c0-0.8-0.6-1.4-1.4-1.4c-0.8,0-1.4,0.6-1.4,1.4
				C14.4-29.4,15-28.8,15.8-28.8z"/>
		</g>
		<g>
			<path class="st1" d="M1.4-28.8c0.8,0,1.4-0.6,1.4-1.4c0-0.8-0.6-1.4-1.4-1.4C0.6-31.7,0-31,0-30.2C0-29.4,0.6-28.8,1.4-28.8z"/>
		</g>
	</g>
</pattern>
<g>
	<g>
		<g id="XMLID_12_">
			<g>
				<path class="st2" d="M643.8,605.9c11.2-5.9,20.6-16.5,23.4-28.5c0.2,0.7,0.3,1.4,0.4,2.2c2.2,16.3-9.4,31.9-23.9,39.5
					c-14.5,7.6-31.4,9-47.8,9.9c-58.7,3.3-117.5,3.2-176.3,3.1L253.3,632c-31.4-0.1-62.7-0.1-94.1-0.1c-17.6,0-35.8-0.2-51.6-7.8
					C91.7,616.5,79,599.1,82.8,582c0-0.2,0.1-0.4,0.2-0.7c2.7,12.6,12.8,23.8,24.7,29.6c15.8,7.6,34.1,7.8,51.6,7.8
					c31.4,0.1,62.7,0.1,94.1,0.1l166.3,0.2c58.8,0.1,117.6,0.1,176.3-3.2C612.3,614.9,629.3,613.6,643.8,605.9z"/>
				<path class="st3" d="M667.2,577.4c-2.8,12-12.2,22.7-23.4,28.5c-14.5,7.7-31.4,9-47.8,9.9c-58.7,3.3-117.5,3.3-176.3,3.2
					l-166.3-0.2c-31.4,0-62.8-0.1-94.1-0.1c-17.6,0-35.8-0.2-51.6-7.8c-12-5.7-22.1-17-24.7-29.6c2.5-10.3,10.5-18.7,19.8-23.9
					c9.5-5.2,20.4-7.5,31.1-9.1c33.7-5.2,68-4.9,102.1-4.6c118.1,0.9,236.1,1.9,354.2,2.8c15.7,0.1,31.6-3,46.6,1.4
					C650.9,552.1,664.2,563,667.2,577.4z"/>
			</g>
			<g>
				<path class="st4" d="M667.2,577.4c-3-14.4-16.3-25.3-30.5-29.5c-15-4.4-30.9-1.3-46.6-1.4c-118-0.9-236.1-1.9-354.2-2.8
					c-34.1-0.3-68.4-0.5-102.1,4.6c-10.7,1.6-21.6,3.9-31.1,9.1c-9.3,5.1-17.3,13.5-19.8,23.9c-0.1,0.2-0.1,0.4-0.2,0.7
					c-3.7,17.1,8.9,34.5,24.7,42.1c15.8,7.6,34.1,7.8,51.6,7.8c31.4,0.1,62.7,0.1,94.1,0.1l166.3,0.2c58.8,0.1,117.6,0.2,176.3-3.1
					c16.4-0.9,33.3-2.3,47.8-9.9c14.5-7.6,26.1-23.3,23.9-39.5C667.5,578.8,667.3,578.1,667.2,577.4z"/>
				<path class="st4" d="M82.9,581.3c2.7,12.6,12.8,23.8,24.7,29.6c15.8,7.6,34.1,7.8,51.6,7.8c31.4,0.1,62.7,0.1,94.1,0.1
					l166.3,0.2c58.8,0.1,117.6,0.1,176.3-3.2c16.4-0.9,33.3-2.3,47.8-9.9c11.2-5.9,20.6-16.5,23.4-28.5"/>
			</g>
		</g>
		<g>
			<g>
				<path class="st1" d="M227,660.3c0.2-15.4-12.1-28-27.5-28.2c-15.4-0.2-28,12.1-28.2,27.5c-0.2,15.4,12.1,28,27.5,28.2
					C214.2,688,226.8,675.7,227,660.3z"/>
				<path class="st5" d="M211.6,660.2c0.1-6.9-5.4-12.5-12.3-12.6c-6.9-0.1-12.5,5.4-12.6,12.3c-0.1,6.9,5.4,12.5,12.3,12.6
					C205.9,672.6,211.6,667.1,211.6,660.2z"/>
			</g>
			<g>
				
					<ellipse transform="matrix(0.915 -0.4034 0.4034 0.915 -235.8557 204.2072)" class="st1" cx="366.8" cy="662" rx="27.8" ry="27.8"/>
				<path class="st5" d="M379.3,662.2c0.1-6.9-5.4-12.5-12.3-12.6c-6.9-0.1-12.5,5.4-12.6,12.3c-0.1,6.9,5.4,12.5,12.3,12.6
					C373.6,674.6,379.2,669,379.3,662.2z"/>
			</g>
			<g>
				<path class="st1" d="M569,659.2c0.2-15.4-12.1-28-27.5-28.2c-15.4-0.2-28,12.1-28.2,27.5c-0.2,15.4,12.1,28,27.5,28.2
					C556.2,686.9,568.8,674.6,569,659.2z"/>
				<path class="st5" d="M553.6,659c0.1-6.9-5.4-12.5-12.3-12.6c-6.9-0.1-12.5,5.4-12.6,12.3c-0.1,6.9,5.4,12.5,12.3,12.6
					C547.9,671.4,553.6,665.9,553.6,659z"/>
			</g>
		</g>
	</g>
	<g>
		<path class="st5" d="M594,574.7H414.1c-4.3,0-7.8-3.5-7.8-7.8v-88.3c0-4.3,3.5-7.8,7.8-7.8H594c4.3,0,7.8,3.5,7.8,7.8v88.3
			C601.8,571.2,598.3,574.7,594,574.7z"/>
		<g>
			<g>
				
					<ellipse transform="matrix(0.9966 -8.233940e-02 8.233940e-02 0.9966 -41.542 38.1857)" class="st1" cx="442.2" cy="522.8" rx="23.2" ry="23.2"/>
				<path class="st6" d="M453.7,522.8c0-6.3-5.1-11.5-11.5-11.5c-6.3,0-11.5,5.1-11.5,11.5c0,6.3,5.1,11.5,11.5,11.5
					C448.5,534.2,453.7,529.1,453.7,522.8z"/>
			</g>
			<g>
				
					<ellipse transform="matrix(0.9925 -0.1219 0.1219 0.9925 -59.4948 72.8667)" class="st1" cx="565.9" cy="522.8" rx="23.2" ry="23.2"/>
				<path class="st6" d="M577.4,522.8c0-6.3-5.1-11.5-11.5-11.5c-6.3,0-11.5,5.1-11.5,11.5c0,6.3,5.1,11.5,11.5,11.5
					C572.2,534.2,577.4,529.1,577.4,522.8z"/>
			</g>
		</g>
		<g>
			<path class="st7" d="M531.5,543.3h-54.9c-1.5,0-2.8-1.3-2.8-2.8v-35.3c0-1.5,1.3-2.8,2.8-2.8h54.9c1.5,0,2.8,1.3,2.8,2.8v35.3
				C534.3,542.1,533,543.3,531.5,543.3z"/>
			<rect x="473.8" y="513.1" class="st8" width="60.5" height="19"/>
			<path class="st9" d="M543.4,562.6h-78.7c-1.4,0-2.5-1.1-2.5-2.5v-6.5c0-1.4,1.1-2.5,2.5-2.5h78.7c1.4,0,2.5,1.1,2.5,2.5v6.5
				C545.9,561.4,544.8,562.6,543.4,562.6z"/>
			<path class="st9" d="M541.5,495.4h-75c-2.4,0-4.4-2-4.4-4.4v-20.2h83.8v20.2C545.9,493.5,544,495.4,541.5,495.4z"/>
		</g>
		<path class="st1" d="M442.2,470.6v-20.2c0-2.2,1.8-4,4-4h115.8c2.2,0,4,1.8,4,4v20.3l10.2-0.1v-22.3c0-6.9-5.6-12.4-12.4-12.4
			H444.4c-6.9,0-12.4,5.6-12.4,12.4v22.3L442.2,470.6z"/>
	</g>
	<g>
		<g id="XMLID_6_">
			<g>
				<path class="st3" d="M169.9,504.7l0.1-0.5C170,504.4,170,504.5,169.9,504.7z"/>
				<path class="st2" d="M169.9,504.7l-1.4,11.3l-0.1,0c-29.5,12.2-60.9,1.1-64.1-0.1l-2-11c1.4,4.2,16,7.5,33.8,7.5
					C154.1,512.4,168.9,509,169.9,504.7z"/>
				<path class="st10" d="M168.5,515.9l-7.4,59.7c-0.6,4.8-4,8.6-8.7,9.9c-12.5,3.4-22.3,2.1-28.5,0.3c-4.3-1.2-7.5-4.8-8.4-9.1
					l-11.3-60.8c3.2,1.2,34.6,12.2,64.1,0.1L168.5,515.9z"/>
				<path class="st3" d="M102.1,504.2H170l-0.1,0.5c-1,4.3-15.8,7.7-33.9,7.7c-17.8,0-32.4-3.3-33.8-7.5L102.1,504.2z"/>
				<path class="st3" d="M102.3,504.9c-0.1-0.2-0.1-0.5-0.1-0.7L102.3,504.9z"/>
				<path class="st3" d="M102.1,504.2c0-4.5,15.2-8.2,33.9-8.2c18.8,0,33.9,3.7,33.9,8.2H102.1z"/>
			</g>
			<g>
				<path class="st4" d="M102.3,504.9l2,11l11.3,60.8c0.8,4.4,4.1,7.9,8.4,9.1c6.2,1.8,16,3.1,28.5-0.3c4.6-1.3,8.1-5.1,8.7-9.9
					l7.4-59.7l1.4-11.3"/>
				<path class="st4" d="M104.3,515.9c3.2,1.2,34.6,12.2,64.1,0.1"/>
				<path class="st4" d="M170,504.2c0,0.2,0,0.3-0.1,0.5c-1,4.3-15.8,7.7-33.9,7.7c-17.8,0-32.4-3.3-33.8-7.5
					c-0.1-0.2-0.1-0.5-0.1-0.7c0-4.5,15.2-8.2,33.9-8.2C154.8,496,170,499.7,170,504.2z"/>
			</g>
		</g>
		<ellipse class="st11" cx="136" cy="502.9" rx="13.2" ry="2.6"/>
		<path class="st8" d="M141,504.9l-1.3-4.9l-1.2-4.4l-10.8-39c-0.9-3.2-4.2-5.1-7.5-4.1l-23.5,6.9l1.8,7.8l20.2-5.9
			c1.8-0.5,3.6,0.5,4.1,2.3l8.2,32.1l1.1,4.4l1.3,4.9l0.2,0C135.9,505.5,138.5,505.4,141,504.9L141,504.9z"/>
	</g>
	<g>
		<g id="XMLID_4_">
			<g>
				<path class="st3" d="M534.3,588.9c-0.7,1.7-2.3,2.9-4,3.4c-1.7,0.6-3.6,0.6-5.4,0.6c-4.6,0.1-9.3,0.2-14,0.2
					c-7.5,0.1-14.9,0.2-22.4-0.1c-1.3-0.1-2.6-0.1-3.8-0.6c-1.2-0.5-2.3-1.5-2.6-2.7c-0.3-1.3,0.5-2.8,1.8-3h0c0,0,0,0.1,0,0.1
					c13.8,0,27.6-0.1,41.4-0.1c1.7,0,3.4,0,4.9-0.7c0.9-0.4,1.7-1.1,2.3-1.9l0.2,0.1C534.3,584.9,534.9,587.2,534.3,588.9z"/>
				<path class="st3" d="M545,586.8c13.8,0,27.6-0.1,41.4-0.1c1.7,0,3.4,0,4.9-0.7c0.9-0.4,1.7-1.1,2.3-1.9l0.2,0.1
					c1.6,0.8,2.2,3,1.6,4.7c-0.7,1.7-2.3,2.9-4,3.4c-1.7,0.6-3.6,0.6-5.4,0.6c-4.6,0.1-9.3,0.2-13.9,0.2c-7.5,0.1-15,0.2-22.4-0.1
					c-1.3-0.1-2.6-0.1-3.8-0.6c-1.2-0.5-2.3-1.5-2.6-2.7C542.9,588.4,543.7,586.9,545,586.8L545,586.8
					C545,586.7,545,586.7,545,586.8z"/>
				<path class="st2" d="M592.9,572.5c1.3,2.2,2.3,4.7,2.1,7.2c-0.1,1.5-0.6,3.1-1.5,4.3c-0.6,0.8-1.3,1.5-2.3,1.9
					c-1.5,0.7-3.3,0.7-4.9,0.7c-13.8,0-27.6,0-41.4,0.1c0,0,0-0.1,0-0.1c2.4-11.8,4.7-23.5,6.5-35.3l0.1,0
					c5.8,0.1,11.6-0.1,17.4-0.6c-0.8,3.7-1.8,7.3-2.8,10.8C576.4,559,587.7,563.6,592.9,572.5z"/>
				<path class="st2" d="M531.9,572.5c1.3,2.2,2.3,4.7,2.1,7.2c-0.1,1.5-0.6,3.1-1.5,4.3c-0.6,0.8-1.3,1.5-2.3,1.9
					c-1.5,0.7-3.2,0.7-4.9,0.7c-13.8,0-27.6,0-41.4,0.1c0,0,0-0.1,0-0.1c2.4-11.8,4.7-23.5,6.5-35.3l0.1,0
					c5.9,0.1,11.7-0.1,17.5-0.6c-0.8,3.6-1.8,7.3-2.9,10.8C515.3,559,526.7,563.6,531.9,572.5z"/>
				<path class="st12" d="M492.7,421.2c20.2,39.4,25.6,86.5,15.3,129.6c-5.8,0.5-11.7,0.7-17.5,0.6l-0.1,0
					c3.2-20.6,5.1-41.1,3.6-61.8c-2.3-31.9-15.3-66-38.1-88.5c9,0.2,17.7,1,24.9,6C486,410.6,489.5,415.8,492.7,421.2z"/>
				<path class="st12" d="M551.7,415.1c19.7,36,27,92,17.3,135.8c-5.8,0.5-11.6,0.7-17.4,0.6l-0.1,0c3.2-20.6,5.1-41.1,3.6-61.8
					c-1.5-20.5-6.6-41.2-16.1-59.4C542.9,424.8,546.7,419,551.7,415.1z"/>
				<pattern  id="SVGID_1_" xlink:href="#Unnamed_Pattern_7" patternTransform="matrix(0.8548 0 0 0.8548 -1077.0511 -1269.2393)">
				</pattern>
				<path class="st13" d="M492.7,421.2c20.2,39.4,25.6,86.5,15.3,129.6c-5.8,0.5-11.7,0.7-17.5,0.6l-0.1,0
					c3.2-20.6,5.1-41.1,3.6-61.8c-2.3-31.9-15.3-66-38.1-88.5c9,0.2,17.7,1,24.9,6C486,410.6,489.5,415.8,492.7,421.2z"/>
				<pattern  id="SVGID_2_" xlink:href="#Unnamed_Pattern_7" patternTransform="matrix(0.8548 0 0 0.8548 -1077.0511 -1269.2393)">
				</pattern>
				<path class="st14" d="M551.7,415.1c19.7,36,27,92,17.3,135.8c-5.8,0.5-11.6,0.7-17.4,0.6l-0.1,0c3.2-20.6,5.1-41.1,3.6-61.8
					c-1.5-20.5-6.6-41.2-16.1-59.4C542.9,424.8,546.7,419,551.7,415.1z"/>
				<path class="st2" d="M692.9,270.5c-0.2,2.8-0.5,5.6-0.9,8.4c-7.6,1.1-15.3,1-22.8-0.5l-0.6,0c0.3-2.5,0.4-4.9,0.3-7.4
					C676.8,272.8,685.1,272.6,692.9,270.5z"/>
				<path class="st15" d="M691.1,284.8c-7.6,1.8-15.7,1.7-23.3-0.3l-0.3-0.1c0.5-2,0.9-4.1,1.2-6.1l0.6,0c7.5,1.4,15.2,1.6,22.8,0.5
					C691.8,280.9,691.5,282.9,691.1,284.8z"/>
				<path class="st12" d="M669.9,216.9c0.4-2.4,1.4-5.3,3.8-5.4c1.4-0.1,2.7,0.9,3.4,2.1c0.7,1.2,0.9,2.6,1.1,4
					c0.8,5.7,1.6,11.5,2.3,17.2c-0.3-8.1-0.5-16.2,0.4-24.2c0.2-1.9,0.6-4,2.2-5c1.9-1.3,4.6-0.4,6,1.4c1.4,1.8,1.9,4.1,2.2,6.3
					c0.6,4.7,0.9,9.4,0.7,14.1c-0.3,1.8-0.4,3.5-0.4,5.3c0.2-1.8,0.3-3.5,0.4-5.3c0.4-2.9,1.2-5.8,2.3-8.5c0.8-1.9,2-4,4-4.3
					c1.3-0.2,2.7,0.5,3.6,1.5c0.9,1,1.3,2.4,1.5,3.7c1,6.2-2.4,12.1-3.5,18.3c-0.8,4.3-0.4,8.7-0.9,12.9c-0.5,4.3-2.1,8.8-5.7,11.1
					c0,2.8-0.1,5.6-0.3,8.4c-7.8,2.1-16.1,2.3-24,0.4c-0.5-10.4-4.4-20.6-11.5-28.2c-3.1-3.3-7-7.5-5.3-11.7c1.6-3.9,7.4-4.5,10.9-2
					c3.5,2.4,5.2,6.6,6.4,10.4C668.6,231.9,668.7,224.4,669.9,216.9z"/>
				<path class="st12" d="M610.5,337h-0.2c-0.1-3.1,0.1-6.2,0.8-9.3c1-4.2,2.8-7.9,5.1-11.5l0.9,0.2c18.1,3.3,37.8-6.2,46.7-22.3
					c1.7-3,2.9-6.3,3.8-9.6l0.3,0.1c7.6,2,15.6,2,23.3,0.3c-0.9,4.4-2,8.7-3.5,12.9c-4.1,11.3-11,21.9-20.6,29.2
					C651.2,338.7,629.8,340.7,610.5,337z"/>
				<path class="st1" d="M543.3,308c-0.6,3.6,1.1,7.5,4.3,9.3c3.1,1.8,7.4,1.5,10.2-0.8c1.9-1.5,3.1-3.8,3.7-6.2
					c0.6-2.4,0.8-4.8,0.9-7.3l-0.2-0.5c4-1.6,7.8-3.6,11.5-5.8l0.3,0.6c0.2,9.1-0.3,18.2-3.2,26.8c-0.8,2.4-1.8,4.7-3,6.9l-0.1-0.1
					c-20.9-9.7-46.8-7.8-66.1,4.9l-0.2,0.1c-1.3-1.5-2.4-3.2-3.3-4.9c-5.1-9.5-4.2-21-3.3-31.7l0.3-0.6c4,2.1,8.1,3.9,12.4,5.4
					l-0.2,0.6c-1,3.8,0.4,8.1,3.3,10.6c2.9,2.6,7.3,3.3,11,1.9c3.6-1.4,6.3-5,6.7-8.9l0-0.2c3,0.2,6.1,0.2,9.1,0
					c1.9-0.1,3.8-0.3,5.7-0.6L543.3,308z"/>
				<path class="st16" d="M501.7,335.8c19.3-12.7,45.2-14.6,66.1-4.9l0.1,0.1c-3.1,5.8-7.6,10.8-13.3,14c-6.1,3.4-13.3,4.5-20.4,4.5
					c-7.1-0.1-14.2-1.3-20.6-4.3c-4.6-2.2-8.9-5.3-12.1-9.2L501.7,335.8z"/>
				<path class="st3" d="M507.7,304.1c6.7,2.3,13.8,3.7,20.8,4.1l0,0.2c-0.4,3.9-3.1,7.4-6.7,8.9c-3.6,1.4-8,0.7-11-1.9
					c-2.9-2.6-4.3-6.9-3.3-10.6L507.7,304.1z"/>
				<path class="st3" d="M562.2,302.5l0.2,0.5c-0.1,2.5-0.3,4.9-0.9,7.3c-0.7,2.4-1.8,4.7-3.7,6.2c-2.8,2.3-7.1,2.7-10.2,0.8
					c-3.1-1.8-4.9-5.7-4.3-9.3l0-0.4C549.8,306.7,556.2,305,562.2,302.5z"/>
				<path class="st12" d="M492.7,421.2c-3.3-5.4-6.8-10.6-11.9-14.1c-7.2-5-15.9-5.8-24.9-6c-11.6-0.3-23.7,0.4-33.1-5.9
					c-13.5-9-15.2-30-6.1-43.4c8.2-12.1,23.8-21.2,23.1-35.8c-0.6-14.3-16.5-22.2-25.1-33.7c-6.3-8.4-8.7-19.7-6.4-30
					c2.3-10.3,9.2-19.5,18.5-24.4c6-3.2,12.7-4.7,19-7.3c6.2-2.6,12.4-6.8,14.7-13.2c7.1-19.2,3.3-41.4,16.9-55.6
					c13.6-14.1,38.3-18.3,52.9-5.2c7.7,6.9,12.8,17.9,22.8,19.8c9,1.6,17.1-5.1,25.8-7.9c10.3-3.4,22.4-1.1,30.7,6
					c8.3,7.1,12.5,18.6,10.8,29.3c-2.1,13.1-12.3,26.1-7,38.3c5.4,12.4,23.4,14.3,30.6,25.9c7.2,11.6,0,26.9-9.1,37.1
					c-6.3,7-13.7,13.6-18.8,21.3c-2.3,3.5-4.1,7.3-5.1,11.5c-0.7,3.1-0.9,6.2-0.8,9.3c0.6,14.2,8.2,28.5,6.7,42.9
					c-1.6,15.6-15.2,29-30.8,30.5c-10,1-20.6-2.4-29.7,1.7c-1.7,0.8-3.3,1.8-4.8,2.9c-5,3.9-8.8,9.7-12.7,15.2
					c-5.1,7.1-10.3,13.4-18.5,14.2c-9.5,0.8-17.5-6.8-22.6-14.8C496.1,426.9,494.4,424,492.7,421.2z M495.3,298.7l-0.3,0.6
					c-1,10.7-1.8,22.2,3.3,31.7c0.9,1.8,2,3.4,3.3,4.9c3.2,3.9,7.4,7.1,12.1,9.2c6.4,3,13.5,4.2,20.6,4.3c7,0.1,14.2-1,20.4-4.5
					c5.7-3.2,10.2-8.2,13.3-14c1.2-2.2,2.2-4.6,3-6.9c2.9-8.6,3.4-17.8,3.2-26.8l-0.3-0.6c-3.7,2.3-7.5,4.2-11.5,5.8
					c-6.1,2.5-12.5,4.2-19,5.1c-1.9,0.3-3.8,0.5-5.7,0.6c-3,0.2-6.1,0.2-9.1,0c-7.1-0.4-14.1-1.8-20.8-4.1
					C503.4,302.7,499.2,300.9,495.3,298.7z"/>
				<pattern  id="SVGID_3_" xlink:href="#Unnamed_Pattern_7" patternTransform="matrix(0.5338 0 0 0.5338 -3611.5564 -4010.9209)">
				</pattern>
				<path class="st17" d="M492.7,421.2c-3.3-5.4-6.8-10.6-11.9-14.1c-7.2-5-15.9-5.8-24.9-6c-11.6-0.3-23.7,0.4-33.1-5.9
					c-13.5-9-15.2-30-6.1-43.4c8.2-12.1,23.8-21.2,23.1-35.8c-0.6-14.3-16.5-22.2-25.1-33.7c-6.3-8.4-8.7-19.7-6.4-30
					c2.3-10.3,9.2-19.5,18.5-24.4c6-3.2,12.7-4.7,19-7.3c6.2-2.6,12.4-6.8,14.7-13.2c7.1-19.2,3.3-41.4,16.9-55.6
					c13.6-14.1,38.3-18.3,52.9-5.2c7.7,6.9,12.8,17.9,22.8,19.8c9,1.6,17.1-5.1,25.8-7.9c10.3-3.4,22.4-1.1,30.7,6
					c8.3,7.1,12.5,18.6,10.8,29.3c-2.1,13.1-12.3,26.1-7,38.3c5.4,12.4,23.4,14.3,30.6,25.9c7.2,11.6,0,26.9-9.1,37.1
					c-6.3,7-13.7,13.6-18.8,21.3c-2.3,3.5-4.1,7.3-5.1,11.5c-0.7,3.1-0.9,6.2-0.8,9.3c0.6,14.2,8.2,28.5,6.7,42.9
					c-1.6,15.6-15.2,29-30.8,30.5c-10,1-20.6-2.4-29.7,1.7c-1.7,0.8-3.3,1.8-4.8,2.9c-5,3.9-8.8,9.7-12.7,15.2
					c-5.1,7.1-10.3,13.4-18.5,14.2c-9.5,0.8-17.5-6.8-22.6-14.8C496.1,426.9,494.4,424,492.7,421.2z M495.3,298.7l-0.3,0.6
					c-1,10.7-1.8,22.2,3.3,31.7c0.9,1.8,2,3.4,3.3,4.9c3.2,3.9,7.4,7.1,12.1,9.2c6.4,3,13.5,4.2,20.6,4.3c7,0.1,14.2-1,20.4-4.5
					c5.7-3.2,10.2-8.2,13.3-14c1.2-2.2,2.2-4.6,3-6.9c2.9-8.6,3.4-17.8,3.2-26.8l-0.3-0.6c-3.7,2.3-7.5,4.2-11.5,5.8
					c-6.1,2.5-12.5,4.2-19,5.1c-1.9,0.3-3.8,0.5-5.7,0.6c-3,0.2-6.1,0.2-9.1,0c-7.1-0.4-14.1-1.8-20.8-4.1
					C503.4,302.7,499.2,300.9,495.3,298.7z"/>
			</g>
			<g>
				<path class="st4" d="M483.8,291.1c3.6,2.9,7.4,5.4,11.5,7.6c4,2.1,8.1,3.9,12.4,5.4c6.7,2.3,13.8,3.7,20.8,4.1
					c3,0.2,6.1,0.2,9.1,0c1.9-0.1,3.8-0.3,5.7-0.6c6.5-0.9,12.9-2.6,19-5.1c4-1.6,7.8-3.6,11.5-5.8c5.5-3.3,10.5-7.4,15-12"/>
				<path class="st4" d="M495,299.3c-1,10.7-1.8,22.2,3.3,31.7c0.9,1.8,2,3.4,3.3,4.9c3.2,3.9,7.4,7.1,12.1,9.2
					c6.4,3,13.5,4.2,20.6,4.3c7,0.1,14.2-1,20.4-4.5c5.7-3.2,10.2-8.2,13.3-14c1.2-2.2,2.2-4.6,3-6.9c2.9-8.6,3.4-17.8,3.2-26.8"/>
				<path class="st4" d="M501.7,335.8c19.3-12.7,45.2-14.6,66.1-4.9"/>
				<path class="st4" d="M507.5,304.7c-1,3.8,0.4,8.1,3.3,10.6c2.9,2.6,7.3,3.3,11,1.9c3.6-1.4,6.3-5,6.7-8.9"/>
				<path class="st4" d="M543.3,308c-0.6,3.6,1.1,7.5,4.3,9.3c3.1,1.8,7.4,1.5,10.2-0.8c1.9-1.5,3.1-3.8,3.7-6.2
					c0.6-2.4,0.8-4.8,0.9-7.3"/>
				<path class="st4" d="M587.2,277.1c-0.8,2.6-0.2,5.6,1.5,7.6c0.2,0.2,0.3,0.4,0.5,0.6c2.1,2,5.5,2.7,8.3,1.7"/>
				<path class="st4" d="M483.8,282.8c1.2,2.6,1.2,5.7,0.1,8.3c-0.2,0.5-0.5,1-0.8,1.5c-1.9,2.8-5.4,4.6-8.8,4.4"/>
				<path class="st4" d="M616.2,316.2c5.1-7.7,12.5-14.3,18.8-21.3c9.1-10.2,16.3-25.5,9.1-37.1c-7.2-11.5-25.2-13.5-30.6-25.9
					c-5.3-12.2,4.9-25.2,7-38.3c1.7-10.7-2.5-22.2-10.8-29.3c-8.3-7.1-20.3-9.4-30.7-6c-8.7,2.9-16.8,9.6-25.8,7.9
					c-10.1-1.8-15.2-12.9-22.8-19.8c-14.6-13.1-39.3-8.9-52.9,5.2c-13.6,14.1-9.8,36.4-16.9,55.6c-2.3,6.4-8.5,10.5-14.7,13.2
					c-6.3,2.6-13,4.1-19,7.3c-9.3,5-16.3,14.1-18.5,24.4c-2.3,10.3,0.1,21.5,6.4,30c8.6,11.5,24.5,19.4,25.1,33.7
					c0.6,14.6-14.9,23.7-23.1,35.8c-9.1,13.5-7.5,34.5,6.1,43.4c9.4,6.3,21.5,5.6,33.1,5.9c9,0.2,17.7,1,24.9,6
					c5.1,3.6,8.6,8.7,11.9,14.1c1.7,2.8,3.3,5.7,5.1,8.4c5.1,8,13.2,15.6,22.6,14.8c8.3-0.7,13.5-7.1,18.5-14.2
					c3.9-5.4,7.7-11.2,12.7-15.2c1.5-1.2,3.1-2.2,4.8-2.9c9.2-4.1,19.8-0.7,29.7-1.7c15.6-1.5,29.2-15,30.8-30.5
					c1.5-14.4-6.2-28.8-6.7-42.9c-0.1-3.1,0.1-6.2,0.8-9.3C612.1,323.5,613.9,319.8,616.2,316.2z"/>
				<path class="st4" d="M492.4,420.5c0.1,0.2,0.2,0.5,0.3,0.7c20.2,39.4,25.6,86.5,15.3,129.6c-0.8,3.6-1.8,7.3-2.9,10.8
					c10.1-2.7,21.5,2,26.7,10.8c1.3,2.2,2.3,4.7,2.1,7.2c-0.1,1.5-0.6,3.1-1.5,4.3c-0.6,0.8-1.3,1.5-2.3,1.9
					c-1.5,0.7-3.2,0.7-4.9,0.7c-13.8,0-27.6,0-41.4,0.1c0,0,0-0.1,0-0.1c2.4-11.8,4.7-23.5,6.5-35.3c3.2-20.6,5.1-41.1,3.6-61.8
					c-2.3-31.9-15.3-66-38.1-88.5"/>
				<path class="st4" d="M691.9,227.4c0.4-2.9,1.2-5.8,2.3-8.5c0.8-1.9,2-4,4-4.3c1.3-0.2,2.7,0.5,3.6,1.5c0.9,1,1.3,2.4,1.5,3.7
					c1,6.2-2.4,12.1-3.5,18.3c-0.8,4.3-0.4,8.7-0.9,12.9c-0.5,4.3-2.1,8.8-5.7,11.1c0,2.8-0.1,5.6-0.3,8.4c-0.2,2.8-0.5,5.6-0.9,8.4
					c-0.3,2-0.6,4-1,5.9c-0.9,4.4-2,8.7-3.5,12.9c-4.1,11.3-11,21.9-20.6,29.2c-15.7,11.9-37.1,13.8-56.5,10.1"/>
				<path class="st4" d="M691.9,227.4c-0.1,1.8-0.2,3.5-0.4,5.3C691.5,230.9,691.6,229.2,691.9,227.4z"/>
				<path class="st4" d="M617.1,316.4c18.1,3.3,37.8-6.2,46.7-22.3c1.7-3,2.9-6.3,3.8-9.6c0.5-2,0.9-4.1,1.2-6.1
					c0.3-2.5,0.4-4.9,0.3-7.4c-0.5-10.4-4.4-20.6-11.5-28.2c-3.1-3.3-7-7.5-5.3-11.7c1.6-3.9,7.4-4.5,10.9-2
					c3.5,2.4,5.2,6.6,6.4,10.4c-0.8-7.5-0.7-15,0.5-22.5c0.4-2.4,1.4-5.3,3.8-5.4c1.4-0.1,2.7,0.9,3.4,2.1c0.7,1.2,0.9,2.6,1.1,4
					c0.8,5.7,1.6,11.5,2.3,17.2c-0.3-8.1-0.5-16.2,0.4-24.2c0.2-1.9,0.6-4,2.2-5c1.9-1.3,4.6-0.4,6,1.4c1.4,1.8,1.9,4.1,2.2,6.3
					c0.6,4.7,0.9,9.4,0.7,14.1"/>
				<path class="st4" d="M668.9,271c7.9,1.8,16.2,1.7,24-0.4"/>
				<path class="st4" d="M669.3,278.4c7.5,1.4,15.2,1.6,22.8,0.5"/>
				<path class="st4" d="M667.8,284.6c7.6,2,15.6,2,23.3,0.3"/>
				<path class="st4" d="M490.6,551.4c5.9,0.1,11.7-0.1,17.5-0.6c0.1,0,0.2,0,0.3,0"/>
				<path class="st4" d="M483.9,586.7c-1.3,0.2-2.1,1.7-1.8,3c0.3,1.3,1.3,2.3,2.6,2.7c1.2,0.5,2.5,0.6,3.8,0.6
					c7.5,0.3,14.9,0.2,22.4,0.1c4.6-0.1,9.3-0.1,14-0.2c1.8,0,3.7,0,5.4-0.6c1.7-0.5,3.4-1.7,4-3.4c0.6-1.7,0.1-3.9-1.6-4.7"/>
				<path class="st4" d="M551.7,415.1c19.7,36,27,92,17.3,135.8c-0.8,3.7-1.8,7.3-2.8,10.8c10.1-2.7,21.5,2,26.7,10.8
					c1.3,2.2,2.3,4.7,2.1,7.2c-0.1,1.5-0.6,3.1-1.5,4.3c-0.6,0.8-1.3,1.5-2.3,1.9c-1.5,0.7-3.3,0.7-4.9,0.7c-13.8,0-27.6,0-41.4,0.1
					c0,0,0-0.1,0-0.1c2.4-11.8,4.7-23.5,6.5-35.3c3.2-20.6,5.1-41.1,3.6-61.8c-1.5-20.5-6.6-41.2-16.1-59.4"/>
				<path class="st4" d="M551.6,551.4c5.8,0.1,11.6-0.1,17.4-0.6c0.2,0,0.3,0,0.5,0"/>
				<path class="st4" d="M545,586.7c-1.3,0.2-2.1,1.7-1.8,3c0.3,1.3,1.4,2.3,2.6,2.7c1.2,0.5,2.5,0.6,3.8,0.6
					c7.5,0.3,14.9,0.2,22.4,0.1c4.6-0.1,9.3-0.1,13.9-0.2c1.8,0,3.7,0,5.4-0.6c1.7-0.5,3.4-1.7,4-3.4c0.7-1.7,0.1-3.9-1.6-4.7"/>
			</g>
		</g>
		<g>
			<path class="st4" d="M476.4,218.4c2.2-9.8,9.9-18.3,19.4-21.6"/>
			<path class="st4" d="M577.3,195.4c8.4,5.1,14,14.4,14.7,24.1"/>
			<g>
				<ellipse class="st6" cx="503.5" cy="248.8" rx="18.4" ry="33"/>
				<path class="st1" d="M508.4,225.1c-5.8,0-10.8,6.6-12.7,15.7l9.1,6c2.1,1.4,2,4.4-0.2,5.6l-8.7,5.1c2,8.7,6.8,14.9,12.5,14.9
					c7.4,0,13.5-10.6,13.5-23.7S515.8,225.1,508.4,225.1z"/>
			</g>
			<g>
				<ellipse class="st6" cx="562.6" cy="248.8" rx="18.4" ry="33"/>
				<path class="st1" d="M567.6,225.1c-5.8,0-10.8,6.6-12.7,15.7l9.1,6c2.1,1.4,2,4.4-0.2,5.6l-8.7,5.1c2,8.7,6.8,14.9,12.5,14.9
					c7.4,0,13.5-10.6,13.5-23.7S575,225.1,567.6,225.1z"/>
			</g>
		</g>
		<g>
			<g>
				<path class="st1" d="M463.8,278.4c0-2.2-1.8-3.9-3.9-3.9s-3.9,1.8-3.9,3.9c0,2.2,1.8,3.9,3.9,3.9S463.8,280.6,463.8,278.4z"/>
				<path class="st1" d="M477.8,273.1c0-2.2-1.8-3.9-3.9-3.9c-2.2,0-3.9,1.8-3.9,3.9c0,2.2,1.8,3.9,3.9,3.9
					C476,277,477.8,275.2,477.8,273.1z"/>
				<path class="st1" d="M475.6,285.4c0-2.2-1.8-3.9-3.9-3.9c-2.2,0-3.9,1.8-3.9,3.9s1.8,3.9,3.9,3.9
					C473.8,289.4,475.6,287.6,475.6,285.4z"/>
			</g>
			<g>
				<path class="st1" d="M595.3,264.9c1.3-1.7,0.9-4.2-0.8-5.5c-1.7-1.3-4.2-0.9-5.5,0.8c-1.3,1.7-0.9,4.2,0.8,5.5
					C591.5,267.1,594,266.7,595.3,264.9z"/>
				<path class="st1" d="M609.8,269.1c1.3-1.7,0.9-4.2-0.8-5.5c-1.7-1.3-4.2-0.9-5.5,0.8c-1.3,1.7-0.9,4.2,0.8,5.5
					C606,271.2,608.5,270.8,609.8,269.1z"/>
				<path class="st1" d="M600.6,277.6c1.3-1.7,0.9-4.2-0.8-5.5c-1.7-1.3-4.2-0.9-5.5,0.8c-1.3,1.7-0.9,4.2,0.8,5.5
					C596.8,279.8,599.3,279.4,600.6,277.6z"/>
			</g>
		</g>
	</g>
	<g>
		<g id="XMLID_3_">
			<g>
				<path class="st3" d="M351.8,339.4c-0.7,2.2-1.4,4.3-2.7,6.2c-1.3,1.9-3.1,3.6-5.2,4.3c-3,1-6.6,0-8.9-2.2
					c-2.3-2.2-3.5-5.5-3.5-8.7c0-3.2,1.2-6.3,2.9-9l0-0.1c3.4,2.8,7.1,5.3,11.1,7.1C347.6,338,349.7,338.8,351.8,339.4z"/>
				<path class="st3" d="M360.2,340.9c5.9,0.5,11.8-0.2,17.2-2.1l0.2,0.5c0.4,3.6,0.7,7.4-0.4,10.9c-1.1,3.5-3.9,6.7-7.6,7
					c-3.5,0.3-6.8-2.2-8.3-5.4c-1.5-3.1-1.6-6.8-1.2-10.3L360.2,340.9z"/>
				<path class="st3" d="M401.9,336c0.5,3.3,0.1,7.1-2.5,9.2c-2.7,2.2-6.9,1.5-9.7-0.5c-2.8-2.1-4.6-5.2-6.3-8.3l-0.2-0.4
					c1.5-0.9,3-1.9,4.4-3.1c3.2-2.6,5.8-5.7,8-9.2l0.1,0.1C399.1,327.2,401.2,331.5,401.9,336z"/>
				<path class="st15" d="M400.6,537.7l-14.9,26.8c-1.8,3.2,1,7,4.6,6.4c21.4-4,9.1,22.2,9.1,22.2h-52.9
					c15.4-20.1,24.7-38.7,29.8-55.5l0.4,0.1h20.6H400.6z"/>
				<path class="st15" d="M331.9,570.9c21.4-4,9.1,22.2,9.1,22.2h-52.9c15.4-20.1,24.7-38.7,29.8-55.5l0.4,0.1h20.6h3.4l-14.9,26.8
					C325.5,567.7,328.3,571.6,331.9,570.9z"/>
				<path class="st10" d="M225.8,61.8c-0.6,1.3-0.9,2.8-1.2,4.2c-0.6,3.1-1.2,6.2-1.7,9.4l-0.1,0c-1.3,4.3-2.6,8.7-3.9,13.1
					c-0.7,2.3-1.8,5-4.2,5.5c-1.9,0.4-3.8-0.9-4.7-2.6c-0.9-1.7-1-3.7-1.1-5.6c-0.2-6.1,0.1-12.4,1.3-18.4c0.3-1.3,0.6-2.6,0.9-3.9
					c0.8-2.8,2.1-5.9,4.9-6.8c1.9-0.7,4.1-0.1,5.8,1C223.5,58.7,224.7,60.2,225.8,61.8z"/>
				<path class="st10" d="M225.8,61.8c0.4-0.9,0.9-1.7,1.6-2.4c2.1-1.9,5.5-2,8-0.6c2.5,1.4,4.2,3.9,5.1,6.6c0.7,2,1,4.1,1.2,6.3
					l-4.5,0.3c-0.3,6.4-1.5,12.7-3.6,18.7c-0.6,1.6-1.2,3.2-2.3,4.6c-1.1,1.3-2.8,2.3-4.5,2.2c-2.1-0.1-3.8-1.8-4.6-3.7
					c-0.8-1.9-0.8-4-0.7-6.1c0.2-4.1,0.7-8.2,1.4-12.3c0.5-3.1,1.1-6.3,1.7-9.4C224.9,64.6,225.2,63.1,225.8,61.8z"/>
				<path class="st10" d="M268.2,206.5c-28.9-23.7-48-59.2-51.5-96.5l0.1-0.3c-4.1-1.4-7.7-4.1-9.9-7.9c-4-6.9-2.8-15.6-1.4-23.5
					c-6.2-4-11.6-9.1-15.4-15.3c-1-1.6-1.8-3.3-2-5.2c-0.1-1.8,0.6-3.9,2.2-4.8c2.4-1.4,5.4,0.2,7.5,1.9c4.5,3.7,8,8.4,12.3,12.2
					c-1.3,6-1.5,12.3-1.3,18.4c0.1,1.9,0.2,3.9,1.1,5.6c0.9,1.7,2.8,3,4.7,2.6c2.4-0.5,3.5-3.2,4.2-5.5c1.3-4.3,2.6-8.7,3.9-13.1
					l0.1,0c-0.7,4.1-1.2,8.2-1.4,12.3c-0.1,2.1-0.1,4.2,0.7,6.1c0.8,1.9,2.5,3.6,4.6,3.7c1.7,0.1,3.3-0.8,4.5-2.2
					c1.1-1.3,1.8-2.9,2.3-4.6c2.1-6,3.3-12.3,3.6-18.7l4.5-0.3c0,0.7,0.1,1.4,0.2,2.1c2.1-3.4,3.1-7.2,4-10.8c0.9-3.6,2-7.4,4.7-10
					c2.7-2.6,7.6-3.2,9.9-0.3c2.6,3.3,0.4,7.9-1.5,11.6c-9.6,18.1-12.8,39.6-8.9,59.7c3.5,18.5,13,35.9,26.6,48.9
					C273.3,184.6,270.6,195.8,268.2,206.5z"/>
				<path class="st10" d="M506.1,105c0.1,1.9,0.1,3.9-0.7,5.6c-0.8,1.8-2.6,3.2-4.5,2.9c-2.4-0.3-3.7-2.9-4.5-5.2
					c-1.6-4.3-3.2-8.5-4.8-12.8l-0.1,0c-0.7-3.1-1.5-6.2-2.3-9.2c-0.4-1.4-0.8-2.8-1.5-4.1c1-1.6,2.1-3.2,3.6-4.4
					c1.6-1.2,3.7-2,5.7-1.4c2.8,0.8,4.3,3.7,5.4,6.5c0.5,1.3,0.9,2.5,1.2,3.8C505.2,92.6,505.9,98.8,506.1,105z"/>
				<path class="st10" d="M487.6,82.2c0.7,1.3,1.1,2.7,1.5,4.1c0.8,3.1,1.6,6.1,2.3,9.2c1,4,1.8,8.1,2.2,12.2c0.2,2,0.3,4.2-0.3,6.1
					c-0.7,2-2.3,3.7-4.3,4c-1.7,0.2-3.4-0.6-4.6-1.8c-1.2-1.3-1.9-2.8-2.6-4.4c-2.5-5.9-4.1-12.1-4.8-18.4l-4.5,0
					c0-2.1,0.2-4.3,0.7-6.3c0.7-2.8,2.2-5.4,4.6-7c2.4-1.5,5.8-1.7,8,0C486.6,80.6,487.2,81.4,487.6,82.2z"/>
				<path class="st10" d="M509,97.4c1.9,7.8,3.8,16.3,0.3,23.5c-1.9,3.9-5.3,6.9-9.3,8.5l0.1,0.3c-1,41.1-20.9,81.3-53,107h0
					c-1.5-12.4-3.2-24.8-5-37.1c14.2-14.3,23.5-33.5,25.9-53.4c2.4-20.4-2.2-41.5-13-59c-2.2-3.5-4.6-8-2.3-11.5
					c2.1-3.1,7.1-2.8,9.9-0.5c2.9,2.4,4.2,6.1,5.4,9.6c1.2,3.5,2.4,7.3,4.7,10.5c0-0.7,0-1.4,0-2.1l4.5,0c0.7,6.3,2.3,12.5,4.8,18.4
					c0.7,1.6,1.4,3.1,2.6,4.4c1.2,1.2,2.9,2.1,4.6,1.8c2-0.3,3.6-2,4.3-4c0.6-2,0.5-4.1,0.3-6.1c-0.5-4.1-1.3-8.2-2.2-12.2l0.1,0
					c1.6,4.3,3.2,8.5,4.8,12.8c0.8,2.3,2.1,4.9,4.5,5.2c1.9,0.3,3.7-1.2,4.5-2.9c0.8-1.8,0.8-3.7,0.7-5.6
					c-0.2-6.2-0.9-12.4-2.6-18.3c4-4.1,7.2-9.1,11.4-13c2-1.9,4.9-3.6,7.4-2.4c1.7,0.8,2.6,2.8,2.6,4.6c0,1.9-0.8,3.6-1.6,5.3
					C519.9,87.5,514.8,93,509,97.4z"/>
				<path class="st2" d="M421,153.7c4.5,0.4,9.1,0.9,13.6,1.3c5.3,0.5,11.7,2,13.2,7.1c1.3,4.3-2.1,8.9-6.3,10.5
					c-1.1,0.4-2.3,0.7-3.5,0.9c-3.2,0.5-6.6,0.1-9.8-0.3c-43.4-4.9-87.1-7.2-130.8-6.8c-6.2,0.1-12.6,0.2-18.4-2.1
					c-0.3-0.1-0.7-0.3-1-0.4c-3.2-1.4-6.3-3.9-6.8-7.4c-0.7-4.3,3.1-8.3,7.3-9.5c4.1-1.1,8.5-0.2,12.7,0.7c0.1,0,0.1,0,0.2,0
					C334.1,147.9,377.6,149.6,421,153.7z"/>
				<path class="st2" d="M413.1,130.3c1.5,4.5,3.1,9,4.6,13.6l-0.5,0.2c-40.2-1.5-80.4-4-120.4-7.5l-0.3-0.1
					c2.2-4.6,4.4-9.2,6.9-13.7c36.3,3.5,72.6,6.1,109.1,7.8L413.1,130.3z"/>
				<path class="st15" d="M291.2,147.9c1.7-3.8,3.4-7.7,5.2-11.5l0.3,0.1c40.1,3.5,80.2,6,120.4,7.5l0.5-0.2
					c1.1,3.3,2.2,6.5,3.3,9.8c-43.4-4.1-86.9-5.8-129.6-5.7C291.4,148,291.3,148,291.2,147.9z"/>
				<path class="st15" d="M407.5,113.7c1.9,5.5,3.7,11.1,5.6,16.6l-0.7,0.2c-36.4-1.7-72.8-4.3-109.1-7.8c2.9-5.2,6-10.3,9.6-15
					c2.7-3.6,6-7.3,10.4-8.5c5.8-1.6,11.8,1.4,17.4,3.3c9,3.1,18.9,3.6,28.1,1.4c5.7-1.3,11.3-3.6,17.1-4.5
					c5.8-0.8,12.4,0.2,16.4,4.5C405.1,106.6,406.3,110.2,407.5,113.7z"/>
				<path class="st10" d="M331.1,459.5c17.8,33.5,7.7,77.7,7.7,77.7v0.5h-20.6l-0.4-0.1c13.1-43.3-1.4-74.4-9-86.8
					C315.8,454.6,323.4,457.5,331.1,459.5z"/>
				<path class="st10" d="M387.2,455.5c20.9,33.9,10,81.7,10,81.7v0.5h-20.6l-0.4-0.1c10.5-34.8,3.3-61.6-4-77.3
					C377.3,459.1,382.3,457.5,387.2,455.5z"/>
				<path class="st10" d="M351.8,339.4c-2.1-0.6-4.2-1.4-6.2-2.3c-4-1.9-7.8-4.3-11.1-7.1l0,0.1c-1.7,2.7-2.9,5.8-2.9,9
					c0,3.2,1.2,6.4,3.5,8.7c2.3,2.2,5.9,3.2,8.9,2.2c2.2-0.7,4-2.4,5.2-4.3C350.4,343.7,351.1,341.5,351.8,339.4z M377.4,338.7
					c-5.4,2-11.4,2.6-17.2,2.1l0,0.6c-0.4,3.5-0.4,7.1,1.2,10.3c1.5,3.2,4.8,5.6,8.3,5.4c3.7-0.3,6.5-3.5,7.6-7
					c1.1-3.5,0.7-7.3,0.4-10.9L377.4,338.7z M387.2,455.5c-4.8,2-9.8,3.6-15,4.8c-1.4,0.3-2.8,0.6-4.1,0.8
					c-12.3,2.1-24.9,1.4-37-1.6c-7.7-1.9-15.3-4.9-22.3-8.7c-10.2-5.5-19.3-12.9-26.7-21.9c0,0-48.1-67.3-13.9-222.4
					c2.3-10.7,5.1-21.9,8.3-33.5c0.8-2.8,1.6-5.7,2.4-8.5l0-0.1c5.7,2.2,12.2,2.1,18.4,2.1c43.7-0.4,87.4,1.8,130.8,6.8
					c3.3,0.4,6.6,0.7,9.8,0.3c1.3,8.7,2.7,17.3,3.9,26c1.8,12.4,3.5,24.7,5,37.1c2,16.9,3.5,33.9,4.2,51
					c1.6,38.3-1.2,77.2-12.3,113.9C429.9,426.1,410.5,445.7,387.2,455.5z M395.7,323.8c-2.2,3.4-4.9,6.6-8,9.2
					c-1.4,1.1-2.8,2.2-4.4,3.1l0.2,0.4c1.7,3.1,3.4,6.2,6.3,8.3c2.8,2.1,7,2.7,9.7,0.5c2.6-2.1,3-5.9,2.5-9.2
					c-0.7-4.6-2.9-8.9-6.1-12.2L395.7,323.8z"/>
				<pattern  id="SVGID_4_" xlink:href="#Unnamed_Pattern_7" patternTransform="matrix(0.5338 0 0 0.5338 -3611.5564 -4010.9209)">
				</pattern>
				<path class="st18" d="M351.8,339.4c-2.1-0.6-4.2-1.4-6.2-2.3c-4-1.9-7.8-4.3-11.1-7.1l0,0.1c-1.7,2.7-2.9,5.8-2.9,9
					c0,3.2,1.2,6.4,3.5,8.7c2.3,2.2,5.9,3.2,8.9,2.2c2.2-0.7,4-2.4,5.2-4.3C350.4,343.7,351.1,341.5,351.8,339.4z M377.4,338.7
					c-5.4,2-11.4,2.6-17.2,2.1l0,0.6c-0.4,3.5-0.4,7.1,1.2,10.3c1.5,3.2,4.8,5.6,8.3,5.4c3.7-0.3,6.5-3.5,7.6-7
					c1.1-3.5,0.7-7.3,0.4-10.9L377.4,338.7z M387.2,455.5c-4.8,2-9.8,3.6-15,4.8c-1.4,0.3-2.8,0.6-4.1,0.8
					c-12.3,2.1-24.9,1.4-37-1.6c-7.7-1.9-15.3-4.9-22.3-8.7c-10.2-5.5-19.3-12.9-26.7-21.9c0,0-48.1-67.3-13.9-222.4
					c2.3-10.7,5.1-21.9,8.3-33.5c0.8-2.8,1.6-5.7,2.4-8.5l0-0.1c5.7,2.2,12.2,2.1,18.4,2.1c43.7-0.4,87.4,1.8,130.8,6.8
					c3.3,0.4,6.6,0.7,9.8,0.3c1.3,8.7,2.7,17.3,3.9,26c1.8,12.4,3.5,24.7,5,37.1c2,16.9,3.5,33.9,4.2,51
					c1.6,38.3-1.2,77.2-12.3,113.9C429.9,426.1,410.5,445.7,387.2,455.5z M395.7,323.8c-2.2,3.4-4.9,6.6-8,9.2
					c-1.4,1.1-2.8,2.2-4.4,3.1l0.2,0.4c1.7,3.1,3.4,6.2,6.3,8.3c2.8,2.1,7,2.7,9.7,0.5c2.6-2.1,3-5.9,2.5-9.2
					c-0.7-4.6-2.9-8.9-6.1-12.2L395.7,323.8z"/>
			</g>
			<g>
				<path class="st4" d="M421,153.7c-43.4-4.1-86.9-5.8-129.6-5.7c-0.1,0-0.1,0-0.2,0c-4.2-0.9-8.6-1.8-12.7-0.7
					c-4.2,1.2-8,5.1-7.3,9.5c0.5,3.4,3.6,5.9,6.8,7.4c0.3,0.1,0.7,0.3,1,0.4c5.7,2.2,12.2,2.1,18.4,2.1c43.7-0.4,87.4,1.8,130.8,6.8
					c3.3,0.4,6.6,0.7,9.8,0.3c1.2-0.2,2.4-0.5,3.5-0.9c4.2-1.6,7.6-6.2,6.3-10.5c-1.5-5.1-7.9-6.6-13.2-7.1
					C430.1,154.5,425.5,154.1,421,153.7z"/>
				<path class="st4" d="M291.2,148L291.2,148c1.7-3.9,3.4-7.7,5.2-11.5c2.2-4.6,4.4-9.2,6.9-13.7c2.9-5.2,6-10.3,9.6-15
					c2.7-3.6,6-7.3,10.4-8.5c5.8-1.6,11.8,1.4,17.4,3.3c9,3.1,18.9,3.6,28.1,1.4c5.7-1.3,11.3-3.6,17.1-4.5
					c5.8-0.8,12.4,0.2,16.4,4.5c2.5,2.7,3.8,6.3,5,9.8c1.9,5.5,3.7,11.1,5.6,16.6c1.5,4.5,3.1,9,4.6,13.6c1.1,3.3,2.2,6.5,3.3,9.8
					c0.1,0.2,0.1,0.3,0.2,0.5"/>
				<path class="st4" d="M303,122.8c0.1,0,0.2,0,0.3,0c36.3,3.5,72.6,6.1,109.1,7.8"/>
				<path class="st4" d="M296.8,136.6c40.1,3.5,80.2,6,120.4,7.5"/>
				<path class="st4" d="M308.4,309.9c2.8-1.7,5.6-3.5,8.4-5.2c3.8,9.7,9.9,18.7,17.8,25.3c3.4,2.8,7.1,5.3,11.1,7.1
					c2,0.9,4.1,1.7,6.2,2.3c2.7,0.8,5.6,1.3,8.4,1.5c5.9,0.5,11.8-0.2,17.2-2.1c2-0.7,4-1.6,5.9-2.7c1.5-0.9,3-1.9,4.4-3.1
					c3.2-2.6,5.8-5.7,8-9.2c4.6-7.1,7.4-15.4,9.7-23.6c1.7,1.6,3.3,3.2,5,4.7"/>
				<path class="st4" d="M334.4,330c-1.7,2.7-2.9,5.8-2.9,9c0,3.2,1.2,6.4,3.5,8.7c2.3,2.2,5.9,3.2,8.9,2.2c2.2-0.7,4-2.4,5.2-4.3
					c1.2-1.9,2-4.1,2.7-6.2c0,0,0-0.1,0-0.1"/>
				<path class="st4" d="M360.1,341.5c-0.4,3.5-0.4,7.1,1.2,10.3c1.5,3.2,4.8,5.6,8.3,5.4c3.7-0.3,6.5-3.5,7.6-7
					c1.1-3.5,0.7-7.3,0.4-10.9"/>
				<path class="st4" d="M383.5,336.4c1.7,3.1,3.4,6.2,6.3,8.3c2.8,2.1,7,2.7,9.7,0.5c2.6-2.1,3-5.9,2.5-9.2
					c-0.7-4.6-2.9-8.9-6.1-12.2"/>
				<path class="st4" d="M438,173.4c0,0.1,0,0.1,0,0.2c1.3,8.7,2.7,17.3,3.9,26c1.8,12.4,3.5,24.7,5,37.1c2,16.9,3.5,33.9,4.2,51
					c1.6,38.3-1.2,77.2-12.3,113.9c-8.9,24.5-28.3,44.1-51.7,53.9c-4.8,2-9.8,3.6-15,4.8c-1.4,0.3-2.8,0.6-4.1,0.8
					c-12.3,2.1-24.9,1.4-37-1.6c-7.7-1.9-15.3-4.9-22.3-8.7c-10.2-5.5-19.3-12.9-26.7-21.9c0,0-48.1-67.3-13.9-222.4
					c2.3-10.7,5.1-21.9,8.3-33.5c0.8-2.8,1.6-5.7,2.4-8.5"/>
				<path class="st4" d="M477,93.2c0.7,6.3,2.3,12.5,4.8,18.4c0.7,1.6,1.4,3.1,2.6,4.4c1.2,1.2,2.9,2.1,4.6,1.8c2.1-0.3,3.6-2,4.3-4
					c0.7-2,0.5-4.1,0.3-6.2c-0.5-4.1-1.3-8.2-2.2-12.2c-0.7-3.1-1.5-6.2-2.4-9.2c-0.4-1.4-0.8-2.9-1.4-4.1c-0.5-0.9-1-1.7-1.8-2.3
					c-2.2-1.8-5.6-1.6-8,0c-2.4,1.5-3.9,4.2-4.6,7c-0.5,2.1-0.7,4.2-0.7,6.3c0,0.7,0,1.4,0,2.1c-2.3-3.2-3.6-7-4.7-10.5
					c-1.2-3.5-2.5-7.2-5.3-9.6c-2.9-2.4-7.8-2.6-9.9,0.5c-2.3,3.4,0.1,7.9,2.3,11.4c10.8,17.4,15.5,38.6,13,59
					c-2.4,20-11.7,39.1-25.9,53.4"/>
				<path class="st4" d="M487.4,82.5c0.1-0.1,0.1-0.2,0.2-0.3c1-1.6,2.1-3.2,3.6-4.4c1.6-1.2,3.7-2,5.7-1.4c2.8,0.8,4.3,3.7,5.4,6.5
					c0.5,1.3,0.9,2.5,1.2,3.8c1.7,5.9,2.3,12.1,2.6,18.3c0.1,1.9,0.1,3.9-0.7,5.6c-0.8,1.8-2.6,3.2-4.5,2.9
					c-2.4-0.3-3.7-2.9-4.5-5.2c-1.6-4.3-3.2-8.5-4.8-12.8"/>
				<path class="st4" d="M503.5,86.7c4-4.1,7.2-9.1,11.4-13c2-1.9,4.9-3.6,7.4-2.4c1.7,0.8,2.6,2.8,2.6,4.6c0,1.9-0.8,3.6-1.6,5.3
					c-3.3,6.4-8.4,11.9-14.3,16.3c1.9,7.8,3.8,16.3,0.3,23.5c-1.9,3.9-5.3,6.9-9.3,8.5c-2,0.9-4.2,1.4-6.4,1.5
					c-6.5,0.3-13-2.9-17.1-8"/>
				<path class="st4" d="M500,129.7c-1,41.1-20.9,81.3-53,107"/>
				<path class="st4" d="M237.1,72c-0.3,6.4-1.5,12.7-3.6,18.7c-0.6,1.6-1.2,3.2-2.3,4.6c-1.1,1.3-2.8,2.3-4.5,2.2
					c-2.1-0.1-3.8-1.8-4.6-3.7c-0.8-1.9-0.8-4-0.7-6.1c0.2-4.1,0.7-8.2,1.4-12.3c0.5-3.1,1.1-6.3,1.7-9.4c0.3-1.4,0.6-2.9,1.2-4.2
					c0.4-0.9,0.9-1.7,1.6-2.4c2.1-1.9,5.5-2,8-0.6c2.5,1.4,4.2,3.9,5.1,6.6c0.7,2,1,4.1,1.2,6.3c0,0.7,0.1,1.4,0.2,2.1
					c2.1-3.4,3.1-7.2,4-10.8c0.9-3.6,2-7.4,4.7-10c2.7-2.6,7.6-3.2,9.9-0.3c2.6,3.3,0.4,7.9-1.5,11.6c-9.6,18.1-12.8,39.6-8.9,59.7
					c3.5,18.5,13,35.9,26.6,48.9"/>
				<path class="st4" d="M226,62.1c-0.1-0.1-0.1-0.2-0.2-0.3c-1.1-1.5-2.3-3.1-3.9-4.1c-1.7-1.1-3.9-1.7-5.8-1c-2.8,1-4.1,4-4.9,6.8
					c-0.4,1.3-0.7,2.6-0.9,3.9c-1.3,6-1.5,12.3-1.3,18.4c0.1,1.9,0.2,3.9,1.1,5.6c0.9,1.7,2.8,3,4.7,2.6c2.4-0.5,3.5-3.2,4.2-5.5
					c1.3-4.3,2.6-8.7,3.9-13.1"/>
				<path class="st4" d="M210.2,67.3c-4.3-3.8-7.8-8.6-12.3-12.2c-2.1-1.8-5.1-3.3-7.5-1.9c-1.6,0.9-2.4,2.9-2.2,4.8
					c0.1,1.9,1,3.6,2,5.2c3.8,6.2,9.2,11.3,15.4,15.3c-1.4,7.9-2.7,16.5,1.4,23.5c2.2,3.8,5.8,6.5,9.9,7.9c2.1,0.7,4.3,1.1,6.5,1
					c6.5-0.2,12.8-3.8,16.5-9.2"/>
				<path class="st4" d="M216.7,110c3.5,37.3,22.6,72.8,51.5,96.5"/>
				<path class="st4" d="M318.2,537.7h20.6h3.4l-14.9,26.8c-1.8,3.2,1,7,4.6,6.4c21.4-4,9.1,22.2,9.1,22.2h-52.9
					c15.4-20.1,24.7-38.7,29.8-55.5c13.1-43.3-1.4-74.4-9-86.8"/>
				<path class="st4" d="M331.1,459.5c17.8,33.5,7.7,77.7,7.7,77.7"/>
				<path class="st4" d="M376.6,537.7h20.6h3.4l-14.9,26.8c-1.8,3.2,1,7,4.6,6.4c21.4-4,9.1,22.2,9.1,22.2h-52.9
					c15.4-20.1,24.7-38.7,29.8-55.5c10.5-34.8,3.3-61.6-4-77.3"/>
				<path class="st4" d="M397.1,537.2c0,0,10.9-47.8-10-81.7c0,0,0-0.1-0.1-0.1"/>
			</g>
		</g>
		<path class="st4" d="M345.8,389.1c-5.5,0.6-10.3,4.8-12,10.1c-1.7,5.2-0.5,11.2,2.8,15.7c3.3,4.4,8.4,7.3,13.9,8.2
			c6.8,1.1,14.2-0.8,19-5.7c4.8-4.9,6.6-12.8,3.7-19c-2.9-6.2-10.6-10-17.1-7.8c-3.6,1.2-6.6,4.2-7.4,7.9c-0.8,3.7,1,7.9,4.5,9.4
			c3.4,1.5,8.1-0.3,9.2-3.9"/>
		<g>
			<g>
				<path class="st4" d="M341.7,201.8c-4.2-1.5-9.1-1.1-13,1c-3.9,2.1-6.9,6-7.9,10.4"/>
				<path class="st4" d="M388.8,200c4.1-0.3,8.2,1.1,11.3,3.7c3.1,2.6,5.1,6.5,5.4,10.6"/>
			</g>
			<g>
				<ellipse class="st6" cx="340.8" cy="258.8" rx="21.8" ry="39.2"/>
				<path class="st1" d="M346.6,230.8c-6.9,0-12.8,7.8-15,18.7l10.7,7.1c2.4,1.6,2.3,5.2-0.2,6.7l-10.4,6.1
					c2.4,10.4,8.1,17.7,14.8,17.7c8.8,0,16-12.6,16-28.1C362.6,243.3,355.4,230.8,346.6,230.8z"/>
			</g>
			<g>
				<ellipse class="st6" cx="381.5" cy="258.8" rx="21.8" ry="39.2"/>
				<path class="st1" d="M387.3,230.8c-6.9,0-12.8,7.8-15,18.7l10.7,7.1c2.4,1.6,2.3,5.2-0.2,6.7l-10.4,6.1
					c2.4,10.4,8.1,17.7,14.8,17.7c8.8,0,16-12.6,16-28.1C403.3,243.3,396.1,230.8,387.3,230.8z"/>
			</g>
		</g>
	</g>
	<g>
		<g id="XMLID_5_">
			<g>
				<path class="st1" d="M273.4,494c2.9,14.6,0,30-6.8,43.2c-6.8,13.2-17.3,24.3-29.4,33c2.3-0.2,6.3,0.5,10.2,1.3
					c8,1.8,14.3,8.5,14.9,16.7c0.2,2.8-0.3,4.9-2.5,4.9c-18.4,0-37.6,0-53.9,0c-2.6,0-3.7-0.9-3.7-2.4c0-7.8,28.3-32.2,36.5-42
					c6.9-8.2,13.3-16.9,17.5-26.7c4.2-9.8,6-21,3.4-31.3c-2.6-10-11.7-19.2-21.5-22.7c2.3-2.3,4.1-5,5.3-8c0.5-1.2,0.9-2.5,1.2-3.8
					C260.5,462.9,270.5,479.5,273.4,494z"/>
				<path class="st1" d="M208,494c2.9,14.6,0,30-6.8,43.2c-6.8,13.2-17.3,24.3-29.4,33c2.3-0.2,6.3,0.5,10.2,1.3
					c8,1.8,14.3,8.5,14.9,16.7c0,0.7,0,1.3,0,1.8c-0.2,1.8-0.9,3-2.5,3c-18.4,0-37.6,0-53.9,0c-15.6,0,23-32.7,32.8-44.4
					c6.9-8.2,13.3-16.9,17.5-26.7c4.2-9.8,6-21,3.4-31.3c-2.6-10.3-12.3-19.8-22.5-23.1c3.9-3.2,7.3-7.3,12-8.7
					C196.4,466.3,205.1,479.7,208,494z"/>
				<path class="st15" d="M300.4,261.8c2,4.8,1.3,10.5-1.6,14.8c-2.5,3.6-6.4,6-9.5,9.1c-3.1,3.1-5.4,7.8-3.7,11.8
					c2.2,5.1,9.3,6.1,12.8,10.4c2.8,3.4,2.7,8.5,1,12.5c-0.9,2-2.1,3.9-3.5,5.7c-2.3,2.8-5.1,5.1-8.3,6.9c-3.7,2.2-7.6,5.3-9.1,10.2
					c-0.5,1.6-0.6,3.3-0.3,5c2.2,10.8,18.8,8.6,19.6,21.7c0.1,1.7-0.2,3.4-0.8,5c-2.3,5.4-7.6,7.2-12.5,9c-3.8,1.4-7.9,3.1-10.2,6.4
					c-2.3,3.3-2,8.8,1.7,10.6c5.9,4.4,9.8,13.2,8.4,21.3c-1.4,8.1-8,15.1-16.1,16.9c-6,1.4-13.1,0.2-17.9,4.1
					c-3.8,3.1-4.7,8.1-6,12.9c-0.4,1.3-0.8,2.6-1.2,3.8c-1.2,3-3,5.7-5.3,8c-2.5,2.6-5.6,4.6-9,5.8c-6.4,2.3-13.8,1.5-19.7-1.9
					c-4.2-2.4-7.5-6-11.3-8.9c-3.8-2.9-8.6-5.2-13.3-4.3c-0.4,0.1-0.7,0.2-1,0.3c-4.7,1.4-8.1,5.5-12,8.7c-2,1.6-4.1,2.9-6.5,3.6
					c-5.1,1.3-10.7-1.2-14.4-5c-3.7-3.8-6-8.8-8.2-13.6c-0.9-3.9-1.2-8.4-2.8-12.6c-1.5-4.2-4.5-8.1-8.7-9.7c-2.9-1.1-6.1-1-9-2
					c-8.2-3-11-14.4-7.2-22.1c1.3-2.6,2.4-5.4,2.8-8.4c2.2-14.8-12.7-12.2-17.7-19.8c-3.6-5.3-0.5-12.4,3.4-17.5
					c3.8-5.1,8.7-10.2,8.7-16.5c0.6-4.7-3.2-8.6-7-11.2c-3.3-2.3-7.1-4.3-9.5-7.5c-0.3-0.5-0.6-1-0.9-1.5c-3.3-6.3,0-13.9,3.6-20
					c3.6-6.1,7.7-13,5.8-19.8c-0.3-1-0.7-2-1.2-3c-3.6-6.6-11.8-11-12.8-18.6c-1.6-11.6,14.8-19.2,14.6-31
					c-0.2-9.6-11.7-17.9-4.5-27.2c1.8-2.3,4.4-4,7.2-5c5.5-1.9,13.9-5.7,14.2-12.4c0.2-4.6-3.6-8.7-3.6-13.3c0-6.3,7-10.2,13.2-11.1
					c6.2-0.9,12.9-0.3,18.4-3.4c1.5-0.9,1.9-4.7,1.3-7.8c-0.7-3-2.3-5.8-3.3-8.7c-1.4-3.9-1.7-8.7,2.6-11.4c1.9-1.2,4.3-1.5,6.6-1.1
					c5.7,1,9.7,5.1,14.6,7.7c3.9,2.1,9.1,3.1,12.7,0.4c2-4,3.2-8.1,5.7-11.4c2.5-3.3,6.6-5.7,10.7-5.1c3.6,0.6,6.4,3.3,8.5,6.3
					c2.1,2.9,3.8,6.2,6.3,8.9c2.5,2.6,6.3,4.5,9.7,3.5c6.8-3.5,9.6-12.8,18.4-12.2c1.7,0.1,3.4,0.7,4.9,1.6c6,3.8,7.4,11.1,5.8,17.4
					c-0.8,3-2.2,5.8-3.2,8.7c-1.1,2.9-1.8,6.1-1.2,9.1c0,0,0,0.1,0,0.1c0.9,3.8,4.7,6.3,8.6,5.7c2.4-0.3,4.9-0.4,7.2,0
					c3.3,0.5,6.5,1.9,8.7,4.3c4.2,4.8,3.3,12.5-0.5,17.6c-1.2,1.5-2.6,2.9-3.8,4.6c-1.1,1.6-2,3.6-1.7,5.5c0.3,1.9,1.9,3.8,3.8,3.8
					c3.6,1.5,7.2,2.8,10.2,5c3.1,2.2,5.6,5.4,6,9.1c0.4,3.2-0.8,6.4-2.3,9.2c-2.1,3.9-4.8,7.5-5.6,12.1c-0.3,1.5-0.2,3.2,0.2,4.7
					c1.6,5.9,7,4.9,11.3,6.6C295.7,255.1,298.7,257.8,300.4,261.8z"/>
				<pattern  id="SVGID_5_" xlink:href="#Unnamed_Pattern_7" patternTransform="matrix(0.8548 0 0 0.8548 -1077.0511 -1269.2393)">
				</pattern>
				<path class="st19" d="M300.4,261.8c2,4.8,1.3,10.5-1.6,14.8c-2.5,3.6-6.4,6-9.5,9.1c-3.1,3.1-5.4,7.8-3.7,11.8
					c2.2,5.1,9.3,6.1,12.8,10.4c2.8,3.4,2.7,8.5,1,12.5c-0.9,2-2.1,3.9-3.5,5.7c-2.3,2.8-5.1,5.1-8.3,6.9c-3.7,2.2-7.6,5.3-9.1,10.2
					c-0.5,1.6-0.6,3.3-0.3,5c2.2,10.8,18.8,8.6,19.6,21.7c0.1,1.7-0.2,3.4-0.8,5c-2.3,5.4-7.6,7.2-12.5,9c-3.8,1.4-7.9,3.1-10.2,6.4
					c-2.3,3.3-2,8.8,1.7,10.6c5.9,4.4,9.8,13.2,8.4,21.3c-1.4,8.1-8,15.1-16.1,16.9c-6,1.4-13.1,0.2-17.9,4.1
					c-3.8,3.1-4.7,8.1-6,12.9c-0.4,1.3-0.8,2.6-1.2,3.8c-1.2,3-3,5.7-5.3,8c-2.5,2.6-5.6,4.6-9,5.8c-6.4,2.3-13.8,1.5-19.7-1.9
					c-4.2-2.4-7.5-6-11.3-8.9c-3.8-2.9-8.6-5.2-13.3-4.3c-0.4,0.1-0.7,0.2-1,0.3c-4.7,1.4-8.1,5.5-12,8.7c-2,1.6-4.1,2.9-6.5,3.6
					c-5.1,1.3-10.7-1.2-14.4-5c-3.7-3.8-6-8.8-8.2-13.6c-0.9-3.9-1.2-8.4-2.8-12.6c-1.5-4.2-4.5-8.1-8.7-9.7c-2.9-1.1-6.1-1-9-2
					c-8.2-3-11-14.4-7.2-22.1c1.3-2.6,2.4-5.4,2.8-8.4c2.2-14.8-12.7-12.2-17.7-19.8c-3.6-5.3-0.5-12.4,3.4-17.5
					c3.8-5.1,8.7-10.2,8.7-16.5c0.6-4.7-3.2-8.6-7-11.2c-3.3-2.3-7.1-4.3-9.5-7.5c-0.3-0.5-0.6-1-0.9-1.5c-3.3-6.3,0-13.9,3.6-20
					c3.6-6.1,7.7-13,5.8-19.8c-0.3-1-0.7-2-1.2-3c-3.6-6.6-11.8-11-12.8-18.6c-1.6-11.6,14.8-19.2,14.6-31
					c-0.2-9.6-11.7-17.9-4.5-27.2c1.8-2.3,4.4-4,7.2-5c5.5-1.9,13.9-5.7,14.2-12.4c0.2-4.6-3.6-8.7-3.6-13.3c0-6.3,7-10.2,13.2-11.1
					c6.2-0.9,12.9-0.3,18.4-3.4c1.5-0.9,1.9-4.7,1.3-7.8c-0.7-3-2.3-5.8-3.3-8.7c-1.4-3.9-1.7-8.7,2.6-11.4c1.9-1.2,4.3-1.5,6.6-1.1
					c5.7,1,9.7,5.1,14.6,7.7c3.9,2.1,9.1,3.1,12.7,0.4c2-4,3.2-8.1,5.7-11.4c2.5-3.3,6.6-5.7,10.7-5.1c3.6,0.6,6.4,3.3,8.5,6.3
					c2.1,2.9,3.8,6.2,6.3,8.9c2.5,2.6,6.3,4.5,9.7,3.5c6.8-3.5,9.6-12.8,18.4-12.2c1.7,0.1,3.4,0.7,4.9,1.6c6,3.8,7.4,11.1,5.8,17.4
					c-0.8,3-2.2,5.8-3.2,8.7c-1.1,2.9-1.8,6.1-1.2,9.1c0,0,0,0.1,0,0.1c0.9,3.8,4.7,6.3,8.6,5.7c2.4-0.3,4.9-0.4,7.2,0
					c3.3,0.5,6.5,1.9,8.7,4.3c4.2,4.8,3.3,12.5-0.5,17.6c-1.2,1.5-2.6,2.9-3.8,4.6c-1.1,1.6-2,3.6-1.7,5.5c0.3,1.9,1.9,3.8,3.8,3.8
					c3.6,1.5,7.2,2.8,10.2,5c3.1,2.2,5.6,5.4,6,9.1c0.4,3.2-0.8,6.4-2.3,9.2c-2.1,3.9-4.8,7.5-5.6,12.1c-0.3,1.5-0.2,3.2,0.2,4.7
					c1.6,5.9,7,4.9,11.3,6.6C295.7,255.1,298.7,257.8,300.4,261.8z"/>
				<path class="st2" d="M75.6,451.1l-0.3,0.3c0.5,2.2-1.1,4.5-3.2,5.2c-2.1,0.7-4.5,0-6.3-1.3c-1.4-1.1-2.5-2.6-3.4-4.1l-0.1,0
					c-0.8,2.2-4,2.8-6,1.5c-2-1.2-3.1-3.5-3.8-5.8c-1.9-5.5-2.6-11.8,0-17c-7.3-26.8-6.4-55.7,2.4-82c8.8-26.3,25.5-49.8,47.4-66.8
					l0.6-0.1c0.5,1,0.9,1.9,1.2,3c1.9,6.8-2.2,13.7-5.8,19.8c-3.6,6.1-6.9,13.7-3.6,20c0.3,0.5,0.6,1,0.9,1.5l-0.7,0.1
					C83.6,337.1,75.6,352,72.2,368c-3.4,15.9-2.2,32.8,3.3,48.1c2.5,1.7,5.2,2.5,7.9,3.1c2.7,0.5,5.4,0.8,7.9,1.8
					c2.5,1,4.9,2.9,5.6,5.5c0.8,2.6-0.7,5.9-3.3,6.5c-1.6,0.3-3.2-0.3-4.7-1c-1.5-0.8-2.8-1.7-4.4-2c-1.6-0.3-3.5,0.1-4.3,1.5
					c-0.6,1.1-0.4,2.4-0.2,3.6c1.1,4.6,3.6,8.9,7.1,12c-0.2,3.1-2.8,6-5.9,6.3C79.3,453.6,77.2,452.6,75.6,451.1z"/>
			</g>
			<g>
				<path class="st4" d="M244.6,456.2c1.3-4.8,2.3-9.8,6-12.9c4.8-3.9,11.8-2.8,17.9-4.1c8-1.8,14.7-8.8,16.1-16.9
					c1.4-8.1-2.5-16.9-8.4-21.3c-3.7-1.8-4.1-7.3-1.7-10.6c2.3-3.3,6.4-5,10.2-6.4c4.9-1.8,10.2-3.6,12.5-9c0.7-1.6,0.9-3.3,0.8-5
					c-0.8-13.1-17.4-10.9-19.6-21.7c-0.3-1.6-0.2-3.3,0.3-5c1.5-4.9,5.4-8,9.1-10.2c3.1-1.8,6-4.1,8.3-6.9c1.4-1.8,2.6-3.6,3.5-5.7
					c1.7-4.1,1.8-9.1-1-12.5c-3.5-4.4-10.6-5.3-12.8-10.4c-1.7-4,0.6-8.7,3.7-11.8c3.1-3.1,6.9-5.5,9.5-9.1c2.9-4.3,3.6-10,1.6-14.8
					c-1.6-4-4.6-6.7-8.6-8.3c-4.3-1.7-9.7-0.7-11.3-6.6c-0.4-1.5-0.5-3.1-0.2-4.7c0.8-4.5,3.6-8.1,5.6-12.1c1.5-2.8,2.6-6.1,2.3-9.2
					c-0.4-3.7-2.9-6.9-6-9.1c-3.1-2.2-6.6-3.5-10.2-5c-2,0-3.6-1.9-3.8-3.8c-0.3-2,0.6-3.9,1.7-5.5c1.1-1.6,2.6-3,3.8-4.6
					c3.9-5.1,4.8-12.9,0.5-17.6c-2.2-2.5-5.4-3.8-8.7-4.3c-2.4-0.4-4.8-0.4-7.2,0c-3.9,0.6-7.8-1.9-8.6-5.7c0,0,0-0.1,0-0.1
					c-0.6-3,0.1-6.2,1.2-9.1c1-2.9,2.5-5.7,3.2-8.7c1.6-6.3,0.2-13.6-5.8-17.4c-1.5-0.9-3.1-1.5-4.9-1.6
					c-8.8-0.6-11.5,8.8-18.4,12.2c-3.5,1-7.2-0.9-9.7-3.5c-2.5-2.6-4.1-5.9-6.3-8.9c-2.1-3-4.9-5.7-8.5-6.3
					c-4.1-0.7-8.2,1.8-10.7,5.1c-2.5,3.3-3.7,7.4-5.7,11.4c-3.6,2.7-8.8,1.7-12.7-0.4c-4.9-2.6-8.9-6.8-14.6-7.7
					c-2.2-0.4-4.6-0.1-6.6,1.1c-4.3,2.6-4,7.5-2.6,11.4c1,2.9,2.6,5.7,3.3,8.7c0.7,3.1,0.3,6.9-1.3,7.8c-5.4,3.1-12.1,2.5-18.4,3.4
					c-6.2,0.9-13.2,4.8-13.2,11.1c0,4.6,3.8,8.7,3.6,13.3c-0.3,6.7-8.7,10.5-14.2,12.4c-2.8,1-5.4,2.6-7.2,5
					c-7.2,9.3,4.3,17.6,4.5,27.2c0.2,11.7-16.2,19.3-14.6,31c1,7.6,9.2,12,12.8,18.6c0.5,1,0.9,1.9,1.2,3c1.9,6.8-2.2,13.7-5.8,19.8
					c-3.6,6.1-6.9,13.7-3.6,20c0.3,0.5,0.6,1,0.9,1.5c2.3,3.2,6.1,5.2,9.5,7.5c3.8,2.6,7.6,6.4,7,11.2c0,6.4-4.8,11.5-8.7,16.5
					c-3.8,5.1-6.9,12.2-3.4,17.5c5.1,7.6,19.9,4.9,17.7,19.8c-0.4,2.9-1.5,5.7-2.8,8.4c-3.8,7.7-1,19.1,7.2,22.1c2.9,1.1,6.1,1,9,2
					c4.2,1.6,7.2,5.5,8.7,9.7c1.5,4.2,1.9,8.7,2.8,12.6c2.2,4.9,4.4,9.8,8.2,13.6c3.7,3.8,9.2,6.3,14.4,5c2.4-0.6,4.5-2,6.5-3.6
					c3.9-3.2,7.3-7.3,12-8.7c0.3-0.1,0.7-0.2,1-0.3c4.7-0.9,9.5,1.4,13.3,4.3c3.8,2.9,7.1,6.5,11.3,8.9c5.9,3.4,13.3,4.1,19.7,1.9
					c3.4-1.2,6.5-3.2,9-5.8c2.3-2.3,4.1-5,5.3-8C243.8,458.8,244.2,457.5,244.6,456.2z"/>
				<path class="st4" d="M102.3,281.2c-21.9,17-38.6,40.5-47.4,66.8c-8.8,26.3-9.7,55.1-2.4,82c-2.6,5.2-1.8,11.5,0,17
					c0.8,2.2,1.8,4.5,3.8,5.8c2,1.2,5.2,0.7,6-1.5"/>
				<path class="st4" d="M58.5,437.1c0.2,4.4,1.3,8.8,3.3,12.8c0.2,0.4,0.4,0.8,0.6,1.2c0.9,1.5,2,3,3.4,4.1c1.8,1.3,4.2,2,6.3,1.3
					c2.1-0.7,3.7-3,3.2-5.2"/>
				<path class="st4" d="M68.1,434.4c1.5,2.3,2.3,5,3.1,7.7c0.8,2.7,1.6,5.4,3.2,7.6c0.4,0.5,0.8,1,1.3,1.4c1.6,1.5,3.6,2.5,5.8,2.3
					c3.1-0.3,5.8-3.2,5.9-6.3c-3.5-3.2-6.1-7.4-7.1-12c-0.3-1.2-0.4-2.5,0.2-3.6c0.8-1.4,2.7-1.9,4.3-1.5c1.6,0.3,3,1.3,4.4,2
					c1.4,0.8,3.1,1.4,4.7,1c2.6-0.6,4.1-3.9,3.3-6.5c-0.8-2.6-3.1-4.5-5.6-5.5c-2.5-1-5.2-1.3-7.9-1.8c-2.7-0.5-5.4-1.3-7.9-3.1
					c-5.6-15.3-6.8-32.2-3.3-48.1c3.4-15.9,11.4-30.9,22.7-42.5"/>
				<path class="st4" d="M183.7,459c12.7,7.3,21.5,20.7,24.3,35c2.9,14.6,0,30-6.8,43.2c-6.8,13.2-17.3,24.3-29.4,33
					c2.3-0.2,6.3,0.5,10.2,1.3c8,1.8,14.3,8.5,14.9,16.7c0,0.7,0,1.3,0,1.8c-0.2,1.8-0.9,3-2.5,3c-18.4,0-37.6,0-53.9,0
					c-15.6,0,23-32.7,32.8-44.4c6.9-8.2,13.3-16.9,17.5-26.7c4.2-9.8,6-21,3.4-31.3c-2.6-10.3-12.3-19.8-22.5-23.1"/>
				<path class="st4" d="M244.6,456.2c15.9,6.7,25.9,23.3,28.8,37.8c2.9,14.6,0,30-6.8,43.2c-6.8,13.2-17.3,24.3-29.4,33
					c2.3-0.2,6.3,0.5,10.2,1.3c8,1.8,14.3,8.5,14.9,16.7c0.2,2.8-0.3,4.9-2.5,4.9c-18.4,0-37.6,0-53.9,0c-2.6,0-3.7-0.9-3.7-2.4
					c0-7.8,28.3-32.2,36.5-42c6.9-8.2,13.3-16.9,17.5-26.7c4.2-9.8,6-21,3.4-31.3c-2.6-10-11.7-19.2-21.5-22.7"/>
			</g>
		</g>
		<g>
			<g>
				<path class="st4" d="M115.1,293.1c2.1,4.8,7.3,8.2,12.6,8.1c5.3-0.1,10.3-3.6,12.3-8.5"/>
				<path class="st4" d="M254.5,274.4c0,5.6,4.5,10.9,10.1,11.8c5.5,0.9,11.5-2.6,13.3-8"/>
				<path class="st4" d="M128,301.7c16.1,22.4,44.7,35.1,72.1,32.1c27.4-3,52.5-21.7,62.5-47.4c0.1,0,0.1,0.1,0.2,0.1"/>
			</g>
			<path class="st4" d="M183.6,345.2c4.9,3,10.9,4.4,16.6,3.8c5.8-0.6,11.3-3.2,15.5-7.2"/>
		</g>
		<g>
			<path class="st4" d="M151,378.7c0.7,3.4,3,6.4,6.1,8c3.1,1.5,6.9,1.5,10,0c3.2-1.6,5.8-4.7,9.4-4.9c6.7-0.5,11,9.2,17.6,8.3
				c5.5-0.7,7.9-8.3,13.4-9.4c4.6-0.8,8.3,3.2,12.5,5.4c5.6,2.9,13.1,1.9,17.7-2.4c3-2.8,5.2-7,9.2-8c4.1-1.1,8.2,1.8,12.4,2.2
				c5.4,0.5,10.9-3.5,12-8.9"/>
			<path class="st4" d="M159.6,421.3c3.3,6.8,12.3,10.1,19.2,7c3.5-1.6,6.6-4.6,10.5-4.5c4.3,0.1,7.5,3.9,11.2,6
				c4.6,2.6,10.7,2.4,15.1-0.5c3.8-2.5,6.6-6.7,11-7.5c4.3-0.7,8.2,2.1,12.4,3.3c8.2,2.2,17.7-3.2,19.8-11.4"/>
		</g>
		<g>
			<path class="st4" d="M136.5,224c4.7-8,12.9-13.9,22-15.7"/>
			<path class="st4" d="M226.3,207.9c9.3-1.8,19.4,0.7,26.8,6.7"/>
			<path class="st4" d="M178.2,207.7c8-6,19.6-6.7,28.2-1.6"/>
			<g>
				<ellipse class="st6" cx="159.2" cy="258.9" rx="18.4" ry="33"/>
				<path class="st1" d="M164.1,235.2c-5.8,0-10.8,6.6-12.7,15.7l9.1,6c2.1,1.4,2,4.4-0.2,5.6l-8.7,5.1c2,8.7,6.8,14.9,12.5,14.9
					c7.4,0,13.5-10.6,13.5-23.7C177.5,245.8,171.5,235.2,164.1,235.2z"/>
			</g>
			<g>
				<ellipse class="st6" cx="194.6" cy="258.9" rx="18.4" ry="33"/>
				<path class="st1" d="M199.5,235.2c-5.8,0-10.8,6.6-12.7,15.7l9.1,6c2.1,1.4,2,4.4-0.2,5.6l-8.7,5.1c2,8.7,6.8,14.9,12.5,14.9
					c7.4,0,13.5-10.6,13.5-23.7C213,245.8,207,235.2,199.5,235.2z"/>
			</g>
			<g>
				<ellipse class="st6" cx="230.1" cy="258.9" rx="18.4" ry="33"/>
				<path class="st1" d="M235,235.2c-5.8,0-10.8,6.6-12.7,15.7l9.1,6c2.1,1.4,2,4.4-0.2,5.6l-8.7,5.1c2,8.7,6.8,14.9,12.5,14.9
					c7.4,0,13.5-10.6,13.5-23.7C248.4,245.8,242.4,235.2,235,235.2z"/>
			</g>
		</g>
		<g>
			<path class="st16" d="M133.8,282.1c0-4.2-3.4-7.5-7.5-7.5c-4.2,0-7.5,3.4-7.5,7.5c0,4.2,3.4,7.5,7.5,7.5
				C130.5,289.6,133.8,286.2,133.8,282.1z"/>
			<path class="st16" d="M275.7,269c0-4.2-3.4-7.5-7.5-7.5c-4.2,0-7.5,3.4-7.5,7.5c0,4.2,3.4,7.5,7.5,7.5
				C272.3,276.6,275.7,273.2,275.7,269z"/>
		</g>
	</g>
</g>
</svg>
