<?xml version="1.0" encoding="utf-8"?>
<!-- Generator: Adobe Illustrator 25.0.0, SVG Export Plug-In . SVG Version: 6.00 Build 0)  -->
<svg version="1.1" id="Capa_1" xmlns="http://www.w3.org/2000/svg" xmlns:xlink="http://www.w3.org/1999/xlink" x="0px" y="0px"
	 viewBox="0 0 808.4 712.5" style="enable-background:new 0 0 808.4 712.5;" xml:space="preserve">
<style type="text/css">
	.st0{fill:none;}
	.st1{fill:#1C1C1B;}
	.st2{fill:#FFF7F2;stroke:#1C1C1B;stroke-linecap:round;stroke-linejoin:round;stroke-miterlimit:10;}
	.st3{opacity:0.1;fill:url(#SVGID_2_);enable-background:new    ;}
	.st4{fill:none;stroke:#1C1C1B;stroke-linecap:round;stroke-linejoin:round;stroke-miterlimit:10;}
	.st5{fill:#FF6496;}
	.st6{fill:#FFF7F2;stroke:#1C1C1B;stroke-width:1;stroke-linecap:round;stroke-linejoin:round;stroke-miterlimit:10.0002;}
	.st7{fill:#FFC031;stroke:#1C1C1B;stroke-linecap:round;stroke-linejoin:round;stroke-miterlimit:10;}
	.st8{fill:#3998E0;stroke:#1C1C1B;stroke-linecap:round;stroke-linejoin:round;stroke-miterlimit:10;}
	.st9{fill:#3998E0;stroke:#1C1C1B;stroke-miterlimit:10;}
	.st10{fill:#FF6565;stroke:#1C1C1B;stroke-miterlimit:10;}
	.st11{fill:#FF8433;stroke:#1C1C1B;stroke-miterlimit:10;}
	.st12{fill:#FFC031;stroke:#1C1C1B;stroke-miterlimit:10;}
</style>
<pattern  y="712.5" width="28.8" height="28.8" patternUnits="userSpaceOnUse" id="SVGID_1_" viewBox="1.4 -30.2 28.8 28.8" style="overflow:visible;">
	<g>
		<rect x="1.4" y="-30.2" class="st0" width="28.8" height="28.8"/>
		<g>
			<rect x="1.4" y="-30.2" class="st0" width="28.8" height="28.8"/>
			<g>
				<path class="st1" d="M30.2-31.6c0.8,0,1.4,0.6,1.4,1.4c0,0.8-0.6,1.4-1.4,1.4s-1.4-0.6-1.4-1.4C28.8-31,29.4-31.6,30.2-31.6z"/>
				<path class="st1" d="M15.8-31.6c0.8,0,1.4,0.6,1.4,1.4c0,0.8-0.6,1.4-1.4,1.4c-0.8,0-1.4-0.6-1.4-1.4C14.4-31,15-31.6,15.8-31.6
					z"/>
				<path class="st1" d="M30.2-17.2c0.8,0,1.4,0.6,1.4,1.4s-0.6,1.4-1.4,1.4s-1.4-0.6-1.4-1.4C28.8-16.6,29.4-17.2,30.2-17.2z"/>
				<path class="st1" d="M15.8-17.2c0.8,0,1.4,0.6,1.4,1.4s-0.6,1.4-1.4,1.4c-0.8,0-1.4-0.6-1.4-1.4C14.4-16.6,15-17.2,15.8-17.2z"
					/>
				<path class="st1" d="M8.6-24.4c0.8,0,1.4,0.6,1.4,1.4c0,0.8-0.6,1.4-1.4,1.4c-0.8,0-1.4-0.6-1.4-1.4C7.2-23.8,7.8-24.4,8.6-24.4
					z"/>
				<path class="st1" d="M23-24.4c0.8,0,1.4,0.6,1.4,1.4c0,0.8-0.6,1.4-1.4,1.4s-1.4-0.6-1.4-1.4S22.2-24.4,23-24.4z"/>
				<path class="st1" d="M8.6-10C9.4-10,10-9.4,10-8.6S9.4-7.2,8.6-7.2c-0.8,0-1.4-0.6-1.4-1.4C7.2-9.4,7.8-10,8.6-10z"/>
				<path class="st1" d="M23-10c0.8,0,1.4,0.6,1.4,1.4S23.8-7.2,23-7.2s-1.4-0.6-1.4-1.4S22.2-10,23-10z"/>
			</g>
			<g>
				<path class="st1" d="M1.4-31.6c0.8,0,1.4,0.6,1.4,1.4c0,0.8-0.6,1.4-1.4,1.4C0.6-28.7,0-29.4,0-30.2C0-31,0.6-31.6,1.4-31.6z"/>
				<path class="st1" d="M1.4-17.2c0.8,0,1.4,0.6,1.4,1.4s-0.6,1.4-1.4,1.4S0-15,0-15.8S0.6-17.2,1.4-17.2z"/>
			</g>
			<g>
				<path class="st1" d="M30.2-2.8c0.8,0,1.4,0.6,1.4,1.4S31,0,30.2,0s-1.4-0.6-1.4-1.4C28.8-2.2,29.4-2.8,30.2-2.8z"/>
				<path class="st1" d="M15.8-2.8c0.8,0,1.4,0.6,1.4,1.4S16.6,0,15.8,0c-0.8,0-1.4-0.6-1.4-1.4C14.4-2.2,15-2.8,15.8-2.8z"/>
			</g>
			<g>
				<path class="st1" d="M1.4-2.8c0.8,0,1.4,0.6,1.4,1.4S2.2,0,1.4,0C0.6,0.1,0-0.6,0-1.4C0-2.2,0.6-2.8,1.4-2.8z"/>
			</g>
		</g>
	</g>
</pattern>
<polygon class="st2" points="764.8,592.9 24.6,592.9 50.1,179.4 764.8,119.6 "/>
<pattern  id="SVGID_2_" xlink:href="#SVGID_1_" patternTransform="matrix(2.4969 0.1235 0.1235 -2.4969 23577.2949 -41207.2852)">
</pattern>
<polygon class="st3" points="764.8,592.9 24.6,592.9 50.1,179.4 764.8,119.6 "/>
<polyline class="st4" points="49.2,202.6 368.9,570.1 764.8,119.6 "/>
<g>
	<path class="st4" d="M260.4,331.8c-14.5,2.3-27.4,12.9-32.5,26.6"/>
	<path class="st4" d="M475.6,336.3c12.8,1.7,24.4,9.8,30.5,21"/>
	<path class="st4" d="M240.5,343.6c29.1,38.8,77.1,62.9,125.6,62.9c48.6,0,96.5-24,125.5-62.9"/>
	<path class="st4" d="M266.3,216.5c8.6-18.2,25.1-32.5,44.4-38.4"/>
	<path class="st4" d="M425.8,183.5c20.7,2,40.2,14,51.2,31.4"/>
	<path class="st4" d="M328.1,424.9c20.1,10.4,44.7,11.8,65.7,3.6"/>
	<g>
		<path class="st5" d="M254.4,283.4c-0.3,5.8-9.8,10-21.3,9.3c-11.5-0.6-20.7-5.8-20.4-11.5c0.3-5.8,9.8-10,21.3-9.3
			C245.5,272.5,254.7,277.6,254.4,283.4z"/>
		<path class="st5" d="M522.7,296.8c-0.3,5.8-9.8,10-21.3,9.3c-11.5-0.6-20.7-5.8-20.4-11.5c0.3-5.8,9.8-10,21.3-9.3
			C513.9,285.9,523,291,522.7,296.8z"/>
	</g>
	<g>
		
			<ellipse transform="matrix(4.940295e-02 -0.9988 0.9988 4.940295e-02 25.8059 573.7372)" class="st6" cx="314.3" cy="273.3" rx="58.4" ry="32.5"/>
		<path class="st1" d="M325,231.9c-10.3-0.5-19.6,10.7-23.8,26.8l15.4,11.4c3.6,2.6,3.1,7.9-0.8,10l-15.9,8.3
			c2.8,15.6,10.7,26.9,20.7,27.4c13.1,0.6,24.8-17.6,25.8-40.6C347.9,251.8,338.3,232.5,325,231.9z"/>
	</g>
	<g>
		
			<ellipse transform="matrix(4.939993e-02 -0.9988 0.9988 4.939993e-02 121.6634 684.8886)" class="st6" cx="420.6" cy="278.5" rx="58.4" ry="32.5"/>
		<path class="st1" d="M431.4,237.2c-10.3-0.5-19.6,10.7-23.8,26.8l15.4,11.4c3.6,2.6,3.1,7.9-0.8,10l-15.9,8.3
			c2.8,15.6,10.7,26.9,20.7,27.4c13.1,0.6,24.8-17.6,25.8-40.6C454.2,257.1,444.4,237.8,431.4,237.2z"/>
	</g>
</g>
<path class="st7" d="M64.2,695.4c-12.5,0-24.8-3.2-34.5-8.1c-9.7-4.9-13.6-16.8-8.7-26.5c4.9-9.7,16.8-13.6,26.5-8.7
	c9.4,4.7,23.4,5.9,30.6-0.4c3.5-3.1,4.6-9,6.1-18.4c1.9-12.2,4.5-28.9,18.4-41.6c29.6-26.9,62.9-7.1,82.7,4.7
	c5.3,3.2,10.3,6.2,14.5,8c8.5,3.8,11.8,1.8,13.1,1c8.7-5.3,16.5-26.7,17.6-48.5c0.6-10.9,9.8-19.2,20.7-18.7
	c10.9,0.6,19.2,9.8,18.7,20.7c-0.5,10-4.6,60.7-36.4,80.1c-10.2,6.2-27.1,11.5-49.8,1.3c-6.2-2.8-12.5-6.5-18.5-10.1
	c-22.5-13.4-29.6-15.3-36.1-9.4c-3.4,3.1-4.5,9.1-6,18.5c-1.9,12.4-4.6,29.4-19.1,42.1C92.6,691.4,78.3,695.4,64.2,695.4z"/>
<path class="st8" d="M570.9,58.4c8.6-4.7,18.8-7.4,30.1-7.7c27.2-0.7,43.9,14.9,57.4,27.5c1.4,1.3,2.7,2.6,4.1,3.8
	c14.8,13.6,27.2,16.6,36.7,8.9c6.3-5.1,11.6-13.5,16.3-25.7c1.9-5,3.6-10.2,5.4-15.6c2.5-7.7,5.2-15.8,8.6-23.8
	c4.3-10,15.9-14.6,25.9-10.3c10,4.3,14.6,15.9,10.3,25.9c-2.7,6.4-5,13.2-7.3,20.4c-1.9,5.7-3.8,11.6-6.1,17.6
	c-7.2,18.8-16.5,32.6-28.3,42.1c-25.5,20.7-58.5,16.8-88.2-10.5c-1.5-1.4-3-2.7-4.4-4.1c-12-11.3-18.8-17.1-29.3-16.8
	c-8.9,0.2-20.9,2.9-22.9,23.1c-0.8,8.2,1.5,16.9,4.1,27c3.9,14.9,8.3,31.7,3.3,51c-4.8,18.6-18,35-35.1,43.8
	c-9.7,5-21.6,1.1-26.5-8.6c-4.9-9.5-1.3-21.1,8-26.2c0.2-0.1,0.3-0.2,0.5-0.3c7.2-3.7,12.9-10.8,15-18.6c2.4-9.3-0.2-19.4-3.3-31.1
	c-3.2-12.1-6.7-25.7-5.2-41C542.4,85.7,553.6,67.9,570.9,58.4z"/>
<ellipse transform="matrix(0.3668 -0.9303 0.9303 0.3668 -322.3584 833.8018)" class="st9" cx="451.4" cy="653.7" rx="23.5" ry="23.5"/>
<ellipse transform="matrix(0.3508 -0.9365 0.9365 0.3508 -18.3821 113.4966)" class="st8" cx="72.7" cy="70" rx="23.5" ry="23.5"/>
<circle class="st10" cx="645" cy="464.4" r="23.5"/>
<ellipse transform="matrix(0.7071 -0.7071 0.7071 0.7071 -256.0418 689.2936)" class="st11" cx="704" cy="653.7" rx="18.9" ry="18.9"/>
<ellipse transform="matrix(0.9872 -0.1596 0.1596 0.9872 -26.7961 22.4084)" class="st12" cx="126.1" cy="178" rx="28.2" ry="28.2"/>
<ellipse transform="matrix(0.7071 -0.7071 0.7071 0.7071 35.0078 224.527)" class="st2" cx="288.5" cy="70" rx="28.2" ry="28.2"/>
</svg>
